<svg width="28" height="29" viewBox="0 0 28 29" fill="none" xmlns="http://www.w3.org/2000/svg">
<path d="M23.2723 5.23242H4.30559C3.90546 5.23242 3.52171 5.39138 3.23877 5.67432C2.95583 5.95726 2.79688 6.341 2.79688 6.74114V23.9836C2.79684 24.0938 2.82497 24.2022 2.8786 24.2985C2.93223 24.3948 3.00957 24.4757 3.10328 24.5337C3.197 24.5917 3.30398 24.6247 3.41406 24.6298C3.52415 24.6348 3.63369 24.6116 3.73228 24.5623L6.89197 22.9825L10.0517 24.5623C10.1413 24.6071 10.2402 24.6304 10.3405 24.6304C10.4407 24.6304 10.5396 24.6071 10.6293 24.5623L13.789 22.9825L16.9487 24.5623C17.0383 24.6071 17.1372 24.6304 17.2375 24.6304C17.3377 24.6304 17.4366 24.6071 17.5263 24.5623L20.686 22.9825L23.8457 24.5623C23.9354 24.607 24.0342 24.6303 24.1345 24.6302C24.2545 24.6304 24.3721 24.5968 24.4739 24.5332C24.5677 24.4754 24.6452 24.3945 24.6989 24.2983C24.7527 24.2022 24.7809 24.0938 24.7811 23.9836V6.74114C24.7811 6.341 24.6221 5.95726 24.3392 5.67432C24.0562 5.39138 23.6725 5.23242 23.2723 5.23242ZM23.4879 22.9372L20.9748 21.6807C20.8851 21.6359 20.7862 21.6126 20.686 21.6126C20.5857 21.6126 20.4868 21.6359 20.3972 21.6807L17.2375 23.2605L14.0778 21.6807C13.9881 21.6359 13.8892 21.6126 13.789 21.6126C13.6887 21.6126 13.5898 21.6359 13.5002 21.6807L10.3405 23.2605L7.18078 21.6807C7.09109 21.6359 6.99222 21.6126 6.89197 21.6126C6.79172 21.6126 6.69285 21.6359 6.60316 21.6807L4.09006 22.9372V6.74114C4.09006 6.68398 4.11277 6.62916 4.15319 6.58874C4.19361 6.54832 4.24843 6.52561 4.30559 6.52561H23.2723C23.3295 6.52561 23.3843 6.54832 23.4247 6.58874C23.4652 6.62916 23.4879 6.68398 23.4879 6.74114V22.9372ZM10.9192 10.7597C10.8655 10.6521 10.783 10.5616 10.6808 10.4983C10.5785 10.4351 10.4607 10.4016 10.3405 10.4016C10.2202 10.4016 10.1024 10.4351 10.0002 10.4983C9.89796 10.5616 9.81539 10.6521 9.76177 10.7597L6.31327 17.6567C6.27534 17.7327 6.25275 17.8154 6.2468 17.9002C6.24084 17.9849 6.25163 18.07 6.27854 18.1505C6.30546 18.2311 6.34799 18.3055 6.40368 18.3697C6.45938 18.4338 6.52716 18.4863 6.60316 18.5242C6.67915 18.5622 6.76188 18.5847 6.8466 18.5907C6.93133 18.5967 7.0164 18.5859 7.09695 18.559C7.17751 18.532 7.25197 18.4895 7.3161 18.4338C7.38022 18.3781 7.43274 18.3103 7.47067 18.2343L8.1539 16.8711H12.527L13.2103 18.2376C13.2869 18.3911 13.4213 18.5078 13.584 18.5622C13.7467 18.6166 13.9243 18.6041 14.0778 18.5275C14.2313 18.4509 14.348 18.3164 14.4024 18.1537C14.4568 17.9911 14.4443 17.8134 14.3677 17.66L10.9192 10.7597ZM8.8005 15.5779L10.3405 12.498L11.8804 15.5779H8.8005ZM21.3326 14.5003C21.3326 14.6718 21.2644 14.8362 21.1432 14.9575C21.0219 15.0787 20.8575 15.1469 20.686 15.1469H18.7462V17.0866C18.7462 17.2581 18.6781 17.4226 18.5568 17.5439C18.4355 17.6651 18.2711 17.7332 18.0996 17.7332C17.9281 17.7332 17.7636 17.6651 17.6424 17.5439C17.5211 17.4226 17.453 17.2581 17.453 17.0866V15.1469H15.5132C15.3417 15.1469 15.1773 15.0787 15.056 14.9575C14.9347 14.8362 14.8666 14.6718 14.8666 14.5003C14.8666 14.3288 14.9347 14.1643 15.056 14.0431C15.1773 13.9218 15.3417 13.8537 15.5132 13.8537H17.453V11.9139C17.453 11.7424 17.5211 11.5779 17.6424 11.4567C17.7636 11.3354 17.9281 11.2673 18.0996 11.2673C18.2711 11.2673 18.4355 11.3354 18.5568 11.4567C18.6781 11.5779 18.7462 11.7424 18.7462 11.9139V13.8537H20.686C20.8575 13.8537 21.0219 13.9218 21.1432 14.0431C21.2644 14.1643 21.3326 14.3288 21.3326 14.5003Z" fill="#6C7787"/>
</svg>
