<svg width="20" height="21" viewBox="0 0 20 21" fill="none" xmlns="http://www.w3.org/2000/svg">
<path d="M0 2.25C0 1.284 0.784 0.5 1.75 0.5H18.25C19.216 0.5 20 1.284 20 2.25V18.75C20 19.2141 19.8156 19.6592 19.4874 19.9874C19.1592 20.3156 18.7141 20.5 18.25 20.5H1.75C1.28587 20.5 0.840752 20.3156 0.512563 19.9874C0.184375 19.6592 0 19.2141 0 18.75V2.25ZM1.75 2C1.6837 2 1.62011 2.02634 1.57322 2.07322C1.52634 2.12011 1.5 2.1837 1.5 2.25V18.75C1.5 18.888 1.612 19 1.75 19H18.25C18.3163 19 18.3799 18.9737 18.4268 18.9268C18.4737 18.8799 18.5 18.8163 18.5 18.75V2.25C18.5 2.1837 18.4737 2.12011 18.4268 2.07322C18.3799 2.02634 18.3163 2 18.25 2H1.75Z" fill="#474747"/>
</svg>
