<svg width="24" height="25" viewBox="0 0 24 25" fill="none" xmlns="http://www.w3.org/2000/svg">
<path d="M8.75 7.5C8.55109 7.5 8.36032 7.57902 8.21967 7.71967C8.07902 7.86032 8 8.05109 8 8.25C8 8.44891 8.07902 8.63968 8.21967 8.78033C8.36032 8.92098 8.55109 9 8.75 9H16.25C16.4489 9 16.6397 8.92098 16.7803 8.78033C16.921 8.63968 17 8.44891 17 8.25C17 8.05109 16.921 7.86032 16.7803 7.71967C16.6397 7.57902 16.4489 7.5 16.25 7.5H8.75ZM7 12.25C7 12.0511 7.07902 11.8603 7.21967 11.7197C7.36032 11.579 7.55109 11.5 7.75 11.5H14.25C14.4489 11.5 14.6397 11.579 14.7803 11.7197C14.921 11.8603 15 12.0511 15 12.25C15 12.4489 14.921 12.6397 14.7803 12.7803C14.6397 12.921 14.4489 13 14.25 13H7.75C7.55109 13 7.36032 12.921 7.21967 12.7803C7.07902 12.6397 7 12.4489 7 12.25ZM9.75 15.5C9.55109 15.5 9.36032 15.579 9.21967 15.7197C9.07902 15.8603 9 16.0511 9 16.25C9 16.4489 9.07902 16.6397 9.21967 16.7803C9.36032 16.921 9.55109 17 9.75 17H16.25C16.4489 17 16.6397 16.921 16.7803 16.7803C16.921 16.6397 17 16.4489 17 16.25C17 16.0511 16.921 15.8603 16.7803 15.7197C16.6397 15.579 16.4489 15.5 16.25 15.5H9.75Z" fill="#474747"/>
<path d="M2 4.25C2 3.284 2.784 2.5 3.75 2.5H20.25C21.216 2.5 22 3.284 22 4.25V20.75C22 21.2141 21.8156 21.6592 21.4874 21.9874C21.1592 22.3156 20.7141 22.5 20.25 22.5H3.75C3.28587 22.5 2.84075 22.3156 2.51256 21.9874C2.18437 21.6592 2 21.2141 2 20.75V4.25ZM3.75 4C3.6837 4 3.62011 4.02634 3.57322 4.07322C3.52634 4.12011 3.5 4.1837 3.5 4.25V20.75C3.5 20.888 3.612 21 3.75 21H20.25C20.3163 21 20.3799 20.9737 20.4268 20.9268C20.4737 20.8799 20.5 20.8163 20.5 20.75V4.25C20.5 4.1837 20.4737 4.12011 20.4268 4.07322C20.3799 4.02634 20.3163 4 20.25 4H3.75Z" fill="#474747"/>
</svg>
