<svg width="25" height="25" viewBox="0 0 25 25" fill="none" xmlns="http://www.w3.org/2000/svg">
<path d="M23.5879 12.5L21.1479 9.71L21.4879 6.02L17.8779 5.2L15.9879 2L12.5879 3.46L9.18789 2L7.29789 5.19L3.68789 6L4.02789 9.7L1.58789 12.5L4.02789 15.29L3.68789 18.99L7.29789 19.81L9.18789 23L12.5879 21.53L15.9879 22.99L17.8779 19.8L21.4879 18.98L21.1479 15.29L23.5879 12.5ZM9.96789 16.51L7.58789 14.11C7.49519 14.0175 7.42164 13.9076 7.37146 13.7866C7.32128 13.6657 7.29545 13.536 7.29545 13.405C7.29545 13.274 7.32128 13.1443 7.37146 13.0234C7.42164 12.9024 7.49519 12.7925 7.58789 12.7L7.65789 12.63C8.04789 12.24 8.68789 12.24 9.07789 12.63L10.6879 14.25L15.8379 9.09C16.2279 8.7 16.8679 8.7 17.2579 9.09L17.3279 9.16C17.7179 9.55 17.7179 10.18 17.3279 10.57L11.4079 16.51C10.9979 16.9 10.3679 16.9 9.96789 16.51Z" fill="#0BD752"/>
</svg>
