<svg width="22" height="22" viewBox="0 0 22 22" fill="none" xmlns="http://www.w3.org/2000/svg">
<path fill-rule="evenodd" clip-rule="evenodd" d="M19.5631 2.31598C19.3196 2.1069 19.0077 1.99453 18.6867 2.00021L18.6691 2.00036H16.9991V11.0004H18.6691L18.6867 11.0005C19.0077 11.0062 19.3196 10.8938 19.5631 10.6847C19.792 10.4883 19.9457 10.2192 19.9991 9.9235V3.07723C19.9457 2.78151 19.792 2.51246 19.5631 2.31598ZM14.9991 11.7881V2.00036H4.70775C4.46659 1.99764 4.23256 2.0821 4.0488 2.23829C3.86503 2.39449 3.74391 2.61184 3.70775 2.8503L2.32773 11.8504C2.3277 11.8506 2.32776 11.8502 2.32773 11.8504C2.30609 11.9936 2.3157 12.1403 2.35606 12.2793C2.39648 12.4185 2.46668 12.5473 2.5618 12.6567C2.65692 12.7661 2.77469 12.8535 2.90694 12.9128C3.0392 12.9722 3.18278 13.0021 3.32773 13.0004L3.33905 13.0003L8.99905 13.0004C9.55134 13.0004 9.99905 13.4481 9.99905 14.0004V18.0004C9.99905 18.5308 10.2098 19.0395 10.5848 19.4146C10.8127 19.6424 11.0898 19.8096 11.3912 19.9058L14.9991 11.7881ZM16.6489 13.0004L12.9129 21.4065C12.7524 21.7676 12.3942 22.0004 11.9991 22.0004C10.9382 22.0004 9.92077 21.5789 9.17063 20.8288C8.42048 20.0786 7.99905 19.0612 7.99905 18.0004V15.0004H3.34417C2.91142 15.0044 2.48289 14.9147 2.08802 14.7375C1.69126 14.5594 1.33796 14.2972 1.05259 13.969C0.767224 13.6409 0.55662 13.2546 0.435368 12.8369C0.314116 12.4193 0.285116 11.9803 0.350378 11.5503L1.73036 2.55043C1.73031 2.55073 1.7304 2.55012 1.73036 2.55043C1.83901 1.83542 2.20244 1.18282 2.7535 0.714416C3.30321 0.247161 4.00284 -0.00629781 4.72414 0.000361638H18.661C19.4686 -0.0115717 20.2528 0.272188 20.8658 0.798383C21.4813 1.32667 21.8813 2.06255 21.99 2.86632C21.996 2.91075 21.9991 2.95553 21.9991 3.00036V10.0004C21.9991 10.0452 21.996 10.09 21.99 10.1344C21.8813 10.9382 21.4813 11.6741 20.8658 12.2023C20.2528 12.7285 19.4686 13.0123 18.661 13.0004H16.6489Z" fill="#999999"/>
</svg>
