<svg width="14" height="15" viewBox="0 0 14 15" fill="none" xmlns="http://www.w3.org/2000/svg">
<path d="M7 11.077L3.461 7.539L4.169 6.819L6.5 9.15V0.5H7.5V9.15L9.83 6.82L10.539 7.539L7 11.077ZM1.616 14.5C1.15533 14.5 0.771 14.346 0.463 14.038C0.155 13.73 0.000666667 13.3453 0 12.884V10.461H1V12.884C1 13.038 1.064 13.1793 1.192 13.308C1.32 13.4367 1.461 13.5007 1.615 13.5H12.385C12.5383 13.5 12.6793 13.436 12.808 13.308C12.9367 13.18 13.0007 13.0387 13 12.884V10.461H14V12.884C14 13.3447 13.846 13.729 13.538 14.037C13.23 14.345 12.8453 14.4993 12.384 14.5H1.616Z" fill="#8A63FF"/>
</svg>
