<svg width="16" height="16" viewBox="0 0 16 16" fill="none" xmlns="http://www.w3.org/2000/svg">
<path d="M9.48831 4.63075C9.48004 5.11336 9.48657 5.59554 9.48657 6.09512C9.55532 6.09816 9.61233 6.10339 9.66978 6.10339C10.2342 6.10382 10.7991 6.10295 11.3639 6.10382C11.706 6.10469 11.7904 6.18868 11.7908 6.52464C11.7917 7.17087 11.7921 7.81711 11.7908 8.46334C11.79 8.76274 11.7155 8.83847 11.4144 8.83977C10.8387 8.84238 10.2634 8.84064 9.68762 8.84064H9.48744V14.142C9.48744 14.6211 9.44044 14.6672 8.95348 14.6672C8.33422 14.6672 7.7154 14.6676 7.09658 14.6668C6.75279 14.6663 6.67315 14.5876 6.67272 14.2464C6.67228 12.5253 6.67272 10.8037 6.67272 9.08216V8.87067C6.60657 8.86675 6.54957 8.86066 6.49256 8.86066C6.02039 8.85979 5.54779 8.86109 5.07562 8.85979C4.74794 8.85848 4.66874 8.78233 4.66787 8.45769C4.66525 7.82233 4.66569 7.18697 4.66743 6.55162C4.6683 6.21392 4.74576 6.1382 5.07954 6.13776C5.54649 6.13733 6.01343 6.13776 6.48037 6.13776H6.67272C6.67272 6.05726 6.67185 5.99372 6.67272 5.93019C6.68403 5.31137 6.66184 4.68993 6.71406 4.07503C6.84635 2.52711 8.03656 1.40653 9.59188 1.34822C10.2425 1.32385 10.8944 1.33778 11.5463 1.33952C11.7617 1.34039 11.8539 1.43351 11.8552 1.65023C11.8587 2.29647 11.8587 2.9427 11.8552 3.58894C11.8539 3.8087 11.7634 3.89574 11.5275 3.9014C11.088 3.91184 10.6481 3.91228 10.2085 3.9188C9.6985 3.92664 9.49745 4.11942 9.48831 4.63075Z" fill="#666666"/>
</svg>
