<svg width="24" height="24" viewBox="0 0 24 24" fill="none" xmlns="http://www.w3.org/2000/svg">
<path d="M24 12C24 18.6274 18.6274 24 12 24C5.37258 24 0 18.6274 0 12C0 5.37258 5.37258 0 12 0C18.6274 0 24 5.37258 24 12ZM3.05004 12C3.05004 16.9429 7.05707 20.95 12 20.95C16.9429 20.95 20.95 16.9429 20.95 12C20.95 7.05707 16.9429 3.05004 12 3.05004C7.05707 3.05004 3.05004 7.05707 3.05004 12Z" fill="#BFBFBF"/>
<path d="M22.475 12C23.3172 12 24.01 11.3145 23.9032 10.4791C23.705 8.9277 23.2047 7.42498 22.4254 6.05772C21.3935 4.24728 19.9079 2.73677 18.1149 1.67488C16.3219 0.612987 14.2832 0.0363261 12.1996 0.00166048C10.116 -0.0330051 8.05933 0.475519 6.23197 1.47718C4.40461 2.47883 2.8696 3.93909 1.77803 5.7142C0.686457 7.48931 0.0759631 9.51809 0.00664147 11.6008C-0.0626802 13.6835 0.41156 15.7484 1.38268 17.5922C2.11608 18.9846 3.11377 20.2147 4.31493 21.2163C4.96179 21.7557 5.9123 21.5404 6.36536 20.8304C6.81841 20.1204 6.59891 19.1861 5.97601 18.6192C5.20985 17.9219 4.56764 17.0942 4.08128 16.1708C3.35699 14.7957 3.00329 13.2556 3.05499 11.7023C3.10669 10.1489 3.56202 8.63579 4.37614 7.31186C5.19027 5.98793 6.33513 4.89882 7.69803 4.15176C9.06093 3.40469 10.5949 3.02542 12.1489 3.05128C13.7029 3.07713 15.2234 3.50722 16.5607 4.29921C17.898 5.0912 19.006 6.21779 19.7756 7.56807C20.2924 8.47479 20.6447 9.46138 20.8203 10.4823C20.9632 11.3124 21.6327 12 22.475 12Z" fill="#8A63FF"/>
</svg>
