<svg width="16" height="16" viewBox="0 0 16 16" fill="none" xmlns="http://www.w3.org/2000/svg">
<path d="M14.6646 5.04849C14.6555 3.61143 14.0147 2.52101 12.775 1.79514C12.2294 1.47558 11.6265 1.33732 10.9942 1.33699C8.99827 1.33536 7.00231 1.33047 5.00635 1.3383C3.38179 1.34449 2.02463 2.33612 1.51072 3.88469C1.43507 4.11295 1.40735 4.35751 1.35779 4.59458C1.34898 4.63664 1.34181 4.67903 1.33398 4.7211V11.2826C1.36985 11.4821 1.38942 11.6863 1.44387 11.8806C1.85735 13.3565 2.81636 14.263 4.31146 14.6008C4.44548 14.6311 4.58341 14.6455 4.71939 14.6673H11.2822C11.4821 14.6314 11.6862 14.6119 11.8809 14.5574C13.3551 14.1446 14.2642 13.1872 14.5968 11.6938C14.6503 11.4547 14.664 11.203 14.6646 10.9571C14.6699 8.98758 14.677 7.01803 14.6646 5.04849ZM8.00665 11.6556C5.99927 11.667 4.34537 10.0157 4.34635 8.00118C4.34733 5.98859 5.97416 4.35947 7.99491 4.34806C10.0023 4.33664 11.6562 5.98761 11.6552 8.00216C11.6542 10.0147 10.0274 11.6439 8.00665 11.6556ZM11.8756 5.23794C11.2724 5.23598 10.765 4.72794 10.7653 4.12599C10.7653 3.52209 11.2711 3.01861 11.8773 3.01926C12.4867 3.01959 12.986 3.51948 12.9843 4.12795C12.983 4.73447 12.4782 5.2399 11.8756 5.23794Z" fill="#8A63FF"/>
<path d="M1.33398 11.2832C1.36985 11.4828 1.38942 11.6869 1.44387 11.8812C1.85735 13.3571 2.81636 14.2636 4.31146 14.6014C4.44548 14.6318 4.58341 14.6461 4.71939 14.668C3.59081 14.668 2.46224 14.668 1.33398 14.668C1.33398 13.5397 1.33398 12.4115 1.33398 11.2832Z" fill="white"/>
<path d="M10.8686 8.00731C10.8634 9.59273 9.56953 10.8778 7.98932 10.8674C6.40651 10.857 5.12956 9.57219 5.13478 7.99492C5.14 6.40982 6.43423 5.12407 8.01443 5.13483C9.59724 5.14527 10.8739 6.43004 10.8686 8.00731Z" fill="#8A63FF"/>
<path d="M12.1968 4.12493C12.1974 4.30036 12.0491 4.44971 11.8756 4.44873C11.7037 4.44775 11.5521 4.29318 11.5547 4.12166C11.5577 3.95308 11.7024 3.80895 11.872 3.80667C12.0497 3.80438 12.1961 3.94786 12.1968 4.12493Z" fill="#8A63FF"/>
</svg>
