<svg width="18" height="23" viewBox="0 0 18 23" fill="none" xmlns="http://www.w3.org/2000/svg">
<path fill-rule="evenodd" clip-rule="evenodd" d="M3 6.5C3 4.9087 3.63214 3.38258 4.75736 2.25736C5.88258 1.13214 7.4087 0.5 9 0.5C10.5913 0.5 12.1174 1.13214 13.2426 2.25736C14.3679 3.38258 15 4.9087 15 6.5H16C16.5304 6.5 17.0391 6.71071 17.4142 7.08579C17.7893 7.46086 18 7.96957 18 8.5V18.5C18 19.0304 17.7893 19.5391 17.4142 19.9142C17.0391 20.2893 16.5304 20.5 16 20.5H2C1.46957 20.5 0.960859 20.2893 0.585786 19.9142C0.210714 19.5391 0 19.0304 0 18.5V8.5C0 7.96957 0.210714 7.46086 0.585786 7.08579C0.960859 6.71071 1.46957 6.5 2 6.5H3ZM9 2.5C10.0609 2.5 11.0783 2.92143 11.8284 3.67157C12.5786 4.42172 13 5.43913 13 6.5H5C5 5.43913 5.42143 4.42172 6.17157 3.67157C6.92172 2.92143 7.93913 2.5 9 2.5ZM11 12.5C11 12.8511 10.9076 13.1959 10.732 13.5C10.5565 13.804 10.304 14.0565 10 14.232V15.5C10 15.7652 9.89464 16.0196 9.70711 16.2071C9.51957 16.3946 9.26522 16.5 9 16.5C8.73478 16.5 8.48043 16.3946 8.29289 16.2071C8.10536 16.0196 8 15.7652 8 15.5V14.232C7.61874 14.0119 7.32077 13.6721 7.15231 13.2653C6.98384 12.8586 6.95429 12.4076 7.06824 11.9824C7.18219 11.5571 7.43326 11.1813 7.78253 10.9133C8.1318 10.6453 8.55975 10.5 9 10.5C9.53043 10.5 10.0391 10.7107 10.4142 11.0858C10.7893 11.4609 11 11.9696 11 12.5Z" fill="white"/>
</svg>
