<svg width="25" height="25" viewBox="0 0 25 25" fill="none" xmlns="http://www.w3.org/2000/svg">
<path d="M6.692 4.17193L20.26 11.8049C20.3836 11.8746 20.4865 11.9758 20.558 12.0983C20.6296 12.2208 20.6673 12.3601 20.6673 12.5019C20.6673 12.6438 20.6296 12.7831 20.558 12.9056C20.4865 13.0281 20.3836 13.1293 20.26 13.1989L6.692 20.8319C6.57022 20.9004 6.43264 20.9358 6.29294 20.9345C6.15324 20.9333 6.0163 20.8955 5.89575 20.8249C5.7752 20.7543 5.67523 20.6534 5.6058 20.5322C5.53637 20.4109 5.49989 20.2736 5.5 20.1339V4.86993C5.50007 4.73032 5.53667 4.59315 5.60617 4.47206C5.67568 4.35097 5.77566 4.25018 5.89618 4.17971C6.01671 4.10924 6.15358 4.07153 6.29319 4.07034C6.4328 4.06915 6.57029 4.10352 6.692 4.17193Z" fill="white"/>
</svg>
