<svg width="24" height="25" viewBox="0 0 24 25" fill="none" xmlns="http://www.w3.org/2000/svg">
<path d="M12 2C14.7848 2 17.4555 3.10625 19.4246 5.07538C21.3938 7.04451 22.5 9.71523 22.5 12.5C22.5 15.2848 21.3938 17.9555 19.4246 19.9246C17.4555 21.8938 14.7848 23 12 23C9.21523 23 6.54451 21.8938 4.57538 19.9246C2.60625 17.9555 1.5 15.2848 1.5 12.5C1.5 9.71523 2.60625 7.04451 4.57538 5.07538C6.54451 3.10625 9.21523 2 12 2ZM12 21.5C14.3869 21.5 16.6761 20.5518 18.364 18.864C20.0518 17.1761 21 14.8869 21 12.5C21 10.1131 20.0518 7.82387 18.364 6.13604C16.6761 4.44821 14.3869 3.5 12 3.5C9.61305 3.5 7.32387 4.44821 5.63604 6.13604C3.94821 7.82387 3 10.1131 3 12.5C3 14.8869 3.94821 17.1761 5.63604 18.864C7.32387 20.5518 9.61305 21.5 12 21.5ZM10.875 15.6965L15.6705 12.5L10.875 9.3035V15.6965ZM11.124 7.6655L16.971 11.564C17.1251 11.6667 17.2514 11.8059 17.3388 11.9692C17.4262 12.1325 17.4719 12.3148 17.4719 12.5C17.4719 12.6852 17.4262 12.8675 17.3388 13.0308C17.2514 13.1941 17.1251 13.3333 16.971 13.436L11.124 17.3345C10.9546 17.4474 10.7577 17.5123 10.5543 17.5221C10.3509 17.5319 10.1487 17.4864 9.96918 17.3903C9.78965 17.2942 9.63957 17.1512 9.53493 16.9766C9.43029 16.8019 9.37501 16.6021 9.375 16.3985V8.6C9.37501 8.39639 9.43029 8.19659 9.53493 8.02193C9.63957 7.84726 9.78965 7.70426 9.96918 7.60819C10.1487 7.51212 10.3509 7.46656 10.5543 7.47639C10.7577 7.48622 10.9546 7.55106 11.124 7.664V7.6655Z" fill="black"/>
</svg>
