<svg width="19" height="15" viewBox="0 0 19 15" fill="none" xmlns="http://www.w3.org/2000/svg">
<path d="M4.37579 13.875C4.37579 14.0408 4.30994 14.1997 4.19273 14.3169C4.07552 14.4342 3.91655 14.5 3.75079 14.5C3.58503 14.5 3.42606 14.4342 3.30885 14.3169C3.19164 14.1997 3.12579 14.0408 3.12579 13.875V2.88375L1.69329 4.3175C1.63518 4.37561 1.56619 4.42171 1.49027 4.45315C1.41434 4.4846 1.33297 4.50079 1.25079 4.50079C1.08482 4.50079 0.925648 4.43486 0.80829 4.3175C0.690931 4.20014 0.625 4.04097 0.625 3.875C0.625 3.70903 0.690931 3.54986 0.80829 3.4325L3.30829 0.93375L3.31704 0.925C3.43485 0.811479 3.59247 0.748678 3.75607 0.75008C3.91967 0.751482 4.07619 0.816976 4.19204 0.9325L6.69204 3.4325C6.75015 3.49053 6.79626 3.55943 6.82774 3.63528C6.85922 3.71113 6.87545 3.79244 6.87551 3.87456C6.87557 3.95668 6.85945 4.03801 6.82808 4.1139C6.79671 4.18979 6.75069 4.25876 6.69266 4.31687C6.63464 4.37498 6.56573 4.4211 6.48988 4.45258C6.41403 4.48406 6.33273 4.50029 6.25061 4.50035C6.16849 4.50041 6.08716 4.48429 6.01126 4.45291C5.93537 4.42154 5.8664 4.37553 5.80829 4.3175L4.37579 2.88375V13.875ZM9.37579 2C9.21003 2 9.05106 1.93415 8.93385 1.81694C8.81664 1.69973 8.75079 1.54076 8.75079 1.375C8.75079 1.20924 8.81664 1.05027 8.93385 0.933058C9.05106 0.815848 9.21003 0.75 9.37579 0.75H10.6258C10.7915 0.75 10.9505 0.815848 11.0677 0.933058C11.1849 1.05027 11.2508 1.20924 11.2508 1.375C11.2508 1.54076 11.1849 1.69973 11.0677 1.81694C10.9505 1.93415 10.7915 2 10.6258 2H9.37579ZM9.37579 5.75C9.21003 5.75 9.05106 5.68415 8.93385 5.56694C8.81664 5.44973 8.75079 5.29076 8.75079 5.125C8.75079 4.95924 8.81664 4.80027 8.93385 4.68306C9.05106 4.56585 9.21003 4.5 9.37579 4.5H13.1258C13.2915 4.5 13.4505 4.56585 13.5677 4.68306C13.6849 4.80027 13.7508 4.95924 13.7508 5.125C13.7508 5.29076 13.6849 5.44973 13.5677 5.56694C13.4505 5.68415 13.2915 5.75 13.1258 5.75H9.37579ZM9.37579 9.5C9.21003 9.5 9.05106 9.43415 8.93385 9.31694C8.81664 9.19973 8.75079 9.04076 8.75079 8.875C8.75079 8.70924 8.81664 8.55027 8.93385 8.43306C9.05106 8.31585 9.21003 8.25 9.37579 8.25H15.6258C15.7915 8.25 15.9505 8.31585 16.0677 8.43306C16.1849 8.55027 16.2508 8.70924 16.2508 8.875C16.2508 9.04076 16.1849 9.19973 16.0677 9.31694C15.9505 9.43415 15.7915 9.5 15.6258 9.5H9.37579ZM8.75079 12.625C8.75079 12.7908 8.81664 12.9497 8.93385 13.0669C9.05106 13.1842 9.21003 13.25 9.37579 13.25H18.1258C18.2915 13.25 18.4505 13.1842 18.5677 13.0669C18.6849 12.9497 18.7508 12.7908 18.7508 12.625C18.7508 12.4592 18.6849 12.3003 18.5677 12.1831C18.4505 12.0658 18.2915 12 18.1258 12H9.37579C9.21003 12 9.05106 12.0658 8.93385 12.1831C8.81664 12.3003 8.75079 12.4592 8.75079 12.625Z" fill="black"/>
</svg>
