<svg width="15" height="17" viewBox="0 0 15 17" fill="none" xmlns="http://www.w3.org/2000/svg">
<mask id="path-1-inside-1_1039_21928" fill="white">
<path d="M6.5 16.4114C4.76533 16.1741 3.33167 15.4007 2.199 14.0914C1.06633 12.7807 0.5 11.2501 0.5 9.49941C0.5 8.56607 0.684667 7.67207 1.054 6.81741C1.42333 5.96274 1.931 5.20541 2.577 4.54541L3.291 5.25841C2.69567 5.81241 2.24833 6.45474 1.949 7.18541C1.64967 7.91607 1.5 8.68741 1.5 9.49941C1.5 10.9661 1.97 12.2554 2.91 13.3674C3.85 14.4801 5.04667 15.1614 6.5 15.4114V16.4114ZM8.5 16.4494V15.4494C9.93733 15.1314 11.13 14.4237 12.078 13.3264C13.026 12.2291 13.5 10.9534 13.5 9.49941C13.5 7.83274 12.9167 6.41607 11.75 5.24941C10.5833 4.08274 9.16667 3.49941 7.5 3.49941H6.867L8.467 5.09941L7.759 5.80741L4.952 2.99941L7.76 0.191406L8.467 0.899406L6.867 2.49941H7.5C9.45133 2.49941 11.106 3.17807 12.464 4.53541C13.822 5.89274 14.5007 7.54741 14.5 9.49941C14.5 11.2467 13.9303 12.7687 12.791 14.0654C11.6523 15.3627 10.222 16.1574 8.5 16.4494Z"/>
</mask>
<path d="M6.5 16.4114C4.76533 16.1741 3.33167 15.4007 2.199 14.0914C1.06633 12.7807 0.5 11.2501 0.5 9.49941C0.5 8.56607 0.684667 7.67207 1.054 6.81741C1.42333 5.96274 1.931 5.20541 2.577 4.54541L3.291 5.25841C2.69567 5.81241 2.24833 6.45474 1.949 7.18541C1.64967 7.91607 1.5 8.68741 1.5 9.49941C1.5 10.9661 1.97 12.2554 2.91 13.3674C3.85 14.4801 5.04667 15.1614 6.5 15.4114V16.4114ZM8.5 16.4494V15.4494C9.93733 15.1314 11.13 14.4237 12.078 13.3264C13.026 12.2291 13.5 10.9534 13.5 9.49941C13.5 7.83274 12.9167 6.41607 11.75 5.24941C10.5833 4.08274 9.16667 3.49941 7.5 3.49941H6.867L8.467 5.09941L7.759 5.80741L4.952 2.99941L7.76 0.191406L8.467 0.899406L6.867 2.49941H7.5C9.45133 2.49941 11.106 3.17807 12.464 4.53541C13.822 5.89274 14.5007 7.54741 14.5 9.49941C14.5 11.2467 13.9303 12.7687 12.791 14.0654C11.6523 15.3627 10.222 16.1574 8.5 16.4494Z" fill="white"/>
<path d="M6.5 16.4114L5.95778 20.3745L10.5 20.9959V16.4114H6.5ZM2.199 14.0914L-0.827462 16.7068L-0.826144 16.7084L2.199 14.0914ZM2.577 4.54541L5.40345 1.715L2.54454 -1.13991L-0.281583 1.74746L2.577 4.54541ZM3.291 5.25841L6.01595 8.18666L9.05353 5.35997L6.11745 2.428L3.291 5.25841ZM1.5 9.49941H5.5H1.5ZM2.91 13.3674L5.96556 10.786L5.9648 10.7851L2.91 13.3674ZM6.5 15.4114H10.5V12.0407L7.17811 11.4693L6.5 15.4114ZM8.5 16.4494H4.5V21.1848L9.16873 20.3931L8.5 16.4494ZM8.5 15.4494L7.63592 11.5439L4.5 12.2377V15.4494H8.5ZM6.867 3.49941V-0.500594H-2.78985L4.03857 6.32783L6.867 3.49941ZM8.467 5.09941L11.2954 7.92784L14.1239 5.09941L11.2954 2.27098L8.467 5.09941ZM7.759 5.80741L4.93007 8.63533L7.75849 11.4648L10.5874 8.63583L7.759 5.80741ZM4.952 2.99941L2.12357 0.170979L-0.704351 2.9989L2.12307 5.82733L4.952 2.99941ZM7.76 0.191406L10.5904 -2.63502L7.762 -5.46745L4.93157 -2.63702L7.76 0.191406ZM8.467 0.899406L11.2954 3.72783L14.1219 0.901406L11.2974 -1.92702L8.467 0.899406ZM6.867 2.49941L4.03857 -0.329021L-2.78986 6.49941H6.867V2.49941ZM14.5 9.49941L10.5 9.49804V9.49941H14.5ZM12.791 14.0654L9.78615 11.4252L9.78472 11.4268L12.791 14.0654ZM6.5 16.4114L7.04222 12.4483C6.25934 12.3412 5.7125 12.039 5.22414 11.4744L2.199 14.0914L-0.826144 16.7084C0.950829 18.7625 3.27133 20.0069 5.95778 20.3745L6.5 16.4114ZM2.199 14.0914L5.22546 11.476C4.72807 10.9004 4.5 10.3009 4.5 9.49941H0.5H-3.5C-3.5 12.1993 -2.5954 14.6611 -0.827461 16.7068L2.199 14.0914ZM0.5 9.49941H4.5C4.5 9.11046 4.57353 8.75656 4.72582 8.40414L1.054 6.81741L-2.61782 5.23067C-3.2042 6.58759 -3.5 8.02169 -3.5 9.49941H0.5ZM1.054 6.81741L4.72582 8.40414C4.90224 7.9959 5.13547 7.64997 5.43558 7.34335L2.577 4.54541L-0.281583 1.74746C-1.27347 2.76084 -2.05557 3.92958 -2.61782 5.23067L1.054 6.81741ZM2.577 4.54541L-0.249445 7.37581L0.464554 8.08881L3.291 5.25841L6.11745 2.428L5.40345 1.715L2.577 4.54541ZM3.291 5.25841L0.566053 2.33015C-0.44008 3.26643 -1.22697 4.38638 -1.75243 5.66903L1.949 7.18541L5.65043 8.70178C5.72363 8.5231 5.83141 8.35838 6.01595 8.18666L3.291 5.25841ZM1.949 7.18541L-1.75243 5.66903C-2.25455 6.8947 -2.5 8.18242 -2.5 9.49941H1.5H5.5C5.5 9.1924 5.55389 8.93745 5.65043 8.70178L1.949 7.18541ZM1.5 9.49941H-2.5C-2.5 11.9039 -1.69999 14.1099 -0.144795 15.9497L2.91 13.3674L5.9648 10.7851C5.63999 10.4009 5.5 10.0282 5.5 9.49941H1.5ZM2.91 13.3674L-0.145558 15.9488C1.41029 17.7904 3.45325 18.9461 5.82189 19.3535L6.5 15.4114L7.17811 11.4693C6.64009 11.3768 6.28971 11.1697 5.96556 10.786L2.91 13.3674ZM6.5 15.4114H2.5V16.4114H6.5H10.5V15.4114H6.5ZM8.5 16.4494H12.5V15.4494H8.5H4.5V16.4494H8.5ZM8.5 15.4494L9.36408 19.355C11.6288 18.8539 13.5846 17.7011 15.1049 15.9414L12.078 13.3264L9.05112 10.7114C8.6754 11.1464 8.24589 11.4089 7.63592 11.5439L8.5 15.4494ZM12.078 13.3264L15.1049 15.9414C16.6824 14.1153 17.5 11.9108 17.5 9.49941H13.5H9.5C9.5 9.99604 9.36955 10.3429 9.05112 10.7114L12.078 13.3264ZM13.5 9.49941H17.5C17.5 6.78398 16.5038 4.34631 14.5784 2.42098L11.75 5.24941L8.92157 8.07783C9.32958 8.48584 9.5 8.8815 9.5 9.49941H13.5ZM11.75 5.24941L14.5784 2.42098C12.6531 0.495649 10.2154 -0.500594 7.5 -0.500594V3.49941V7.49941C8.11791 7.49941 8.51357 7.66983 8.92157 8.07783L11.75 5.24941ZM7.5 3.49941V-0.500594H6.867V3.49941V7.49941H7.5V3.49941ZM6.867 3.49941L4.03857 6.32783L5.63857 7.92783L8.467 5.09941L11.2954 2.27098L9.69543 0.670979L6.867 3.49941ZM8.467 5.09941L5.63857 2.27098L4.93057 2.97898L7.759 5.80741L10.5874 8.63583L11.2954 7.92784L8.467 5.09941ZM7.759 5.80741L10.5879 2.97948L7.78093 0.171483L4.952 2.99941L2.12307 5.82733L4.93007 8.63533L7.759 5.80741ZM4.952 2.99941L7.78043 5.82783L10.5884 3.01983L7.76 0.191406L4.93157 -2.63702L2.12357 0.170979L4.952 2.99941ZM7.76 0.191406L4.92957 3.01783L5.63657 3.72583L8.467 0.899406L11.2974 -1.92702L10.5904 -2.63502L7.76 0.191406ZM8.467 0.899406L5.63857 -1.92902L4.03857 -0.329021L6.867 2.49941L9.69543 5.32783L11.2954 3.72783L8.467 0.899406ZM6.867 2.49941V6.49941H7.5V2.49941V-1.50059H6.867V2.49941ZM7.5 2.49941V6.49941C8.41021 6.49941 9.04197 6.77052 9.63627 7.36453L12.464 4.53541L15.2917 1.70628C13.17 -0.414376 10.4925 -1.50059 7.5 -1.50059V2.49941ZM12.464 4.53541L9.63627 7.36453C10.2294 7.95741 10.5003 8.58788 10.5 9.49804L14.5 9.49941L18.5 9.50077C18.501 6.50694 17.4146 3.82807 15.2917 1.70628L12.464 4.53541ZM14.5 9.49941H10.5C10.5 10.2882 10.2754 10.8683 9.78615 11.4252L12.791 14.0654L15.7958 16.7057C17.5852 14.6692 18.5 12.2053 18.5 9.49941H14.5ZM12.791 14.0654L9.78472 11.4268C9.25997 12.0247 8.65899 12.3653 7.83127 12.5057L8.5 16.4494L9.16873 20.3931C11.785 19.9495 14.0447 18.7008 15.7973 16.704L12.791 14.0654Z" fill="white" mask="url(#path-1-inside-1_1039_21928)"/>
</svg>
