<svg width="25" height="25" viewBox="0 0 25 25" fill="none" xmlns="http://www.w3.org/2000/svg">
<path d="M8.58789 10.5H16.5879M8.58789 18.5H16.5879M8.58789 14.5H12.5879M4.58789 21.9V3.1C4.58789 2.94087 4.6511 2.78826 4.76363 2.67574C4.87615 2.56321 5.02876 2.5 5.18789 2.5H16.8399C16.999 2.50014 17.1515 2.56345 17.2639 2.676L20.4119 5.824C20.4679 5.8799 20.5122 5.94632 20.5424 6.01943C20.5726 6.09254 20.5881 6.1709 20.5879 6.25V21.9C20.5879 21.9788 20.5724 22.0568 20.5422 22.1296C20.5121 22.2024 20.4679 22.2685 20.4122 22.3243C20.3564 22.38 20.2903 22.4242 20.2175 22.4543C20.1447 22.4845 20.0667 22.5 19.9879 22.5H5.18789C5.1091 22.5 5.03108 22.4845 4.95828 22.4543C4.88549 22.4242 4.81934 22.38 4.76363 22.3243C4.70791 22.2685 4.66372 22.2024 4.63356 22.1296C4.60341 22.0568 4.58789 21.9788 4.58789 21.9Z" stroke="#0BD752" stroke-width="1.5" stroke-linecap="round" stroke-linejoin="round"/>
<path d="M16.5879 2.5V5.9C16.5879 6.05913 16.6511 6.21174 16.7636 6.32426C16.8761 6.43679 17.0288 6.5 17.1879 6.5H20.5879" stroke="#0BD752" stroke-width="1.5" stroke-linecap="round" stroke-linejoin="round"/>
</svg>
