<svg width="21" height="21" viewBox="0 0 21 21" fill="none" xmlns="http://www.w3.org/2000/svg">
<g clip-path="url(#clip0_869_16332)">
<path d="M18.1738 5V19H2.17383V5H5.17383V4H6.17383V5H14.1738V4H15.1738V5H18.1738ZM3.17383 6V8H17.1738V6H15.1738V7H14.1738V6H6.17383V7H5.17383V6H3.17383ZM17.1738 18V9H3.17383V18H17.1738ZM10.377 13.5L7.02539 16.8516L6.32227 16.1484L8.9707 13.5L6.32227 10.8516L7.02539 10.1484L10.377 13.5ZM11.0254 10.1484L14.377 13.5L11.0254 16.8516L10.3223 16.1484L12.9707 13.5L10.3223 10.8516L11.0254 10.1484Z" fill="#FFB608"/>
</g>
<defs>
<clipPath id="clip0_869_16332">
<rect width="16" height="16" fill="white" transform="translate(2.17383 3)"/>
</clipPath>
</defs>
</svg>
