<svg width="29" height="29" viewBox="0 0 29 29" fill="none" xmlns="http://www.w3.org/2000/svg">
<path fill-rule="evenodd" clip-rule="evenodd" d="M23.06 9.63698C23.0683 9.84182 23.0711 10.0466 23.0711 10.2514C23.0711 16.462 18.4865 23.6318 10.1028 23.6318C7.52753 23.6318 5.13287 22.8496 3.11523 21.5181C3.47189 21.5554 3.8341 21.5834 4.20187 21.5834C6.33715 21.5834 8.30383 20.829 9.86383 19.5627C7.86936 19.5347 6.18523 18.166 5.6044 16.3037C5.88324 16.3596 6.17039 16.3876 6.46405 16.3876C6.87814 16.3876 7.28018 16.3318 7.66555 16.2201C5.57844 15.7918 4.00641 13.8923 4.00641 11.6111C4.00641 11.5831 4.00641 11.5738 4.00641 11.5551C4.62152 11.8997 5.32554 12.1137 6.07312 12.1416C4.84846 11.2943 4.04344 9.85112 4.04344 8.22165C4.04344 7.36502 4.26762 6.5549 4.66225 5.85656C6.90963 8.7058 10.2696 10.5774 14.0575 10.7729C13.9797 10.4284 13.9399 10.0654 13.9399 9.70222C13.9399 7.10438 15.9806 5 18.4985 5C19.8093 5 20.9932 5.56807 21.8242 6.48057C22.8645 6.27572 23.839 5.88468 24.7209 5.34462C24.3791 6.44335 23.6574 7.36497 22.7144 7.94227C23.6371 7.83053 24.5171 7.57932 25.3333 7.20687C24.7209 8.14731 23.9502 8.97588 23.06 9.63698Z" fill="#8A63FF"/>
</svg>
