<svg width="16" height="16" viewBox="0 0 16 16" fill="none" xmlns="http://www.w3.org/2000/svg">
<path d="M13.5895 13.5698C12.1051 11.4039 10.6194 9.23864 9.13433 7.07313C9.11494 7.04492 9.09715 7.01555 9.07299 6.97808C9.33312 6.67484 9.59194 6.3729 9.85106 6.07111C11.1977 4.50268 12.5445 2.9341 13.8911 1.36552C13.8995 1.35569 13.9062 1.34455 13.9137 1.33398H12.77C11.3723 2.96159 9.97447 4.58934 8.55447 6.24284C8.5374 6.21202 8.52525 6.18555 8.50904 6.16196C7.41862 4.5714 6.32791 2.98112 5.23749 1.39055C5.22548 1.3729 5.21694 1.35294 5.20667 1.33398H1.33398C1.36755 1.38896 1.39851 1.44567 1.43482 1.49863C3.07154 3.88607 4.7087 6.27322 6.34585 8.66052C6.36292 8.6854 6.37927 8.71087 6.40314 8.74689C6.27018 8.90285 6.1365 9.0604 6.00181 9.21723C4.47982 10.9897 2.95768 12.7619 1.43584 14.5345C1.39967 14.5768 1.36784 14.6229 1.33398 14.6673H2.47765C2.99559 14.0613 3.51251 13.4544 4.03147 12.8492C4.95407 11.7732 5.87797 10.6981 6.80129 9.6229C6.835 9.58355 6.86972 9.54521 6.90994 9.49935C6.93598 9.53089 6.95913 9.55519 6.97794 9.58254C8.12261 11.2514 9.267 12.9204 10.4112 14.5896C10.4282 14.6144 10.4418 14.6414 10.457 14.6673H14.3295C14.083 14.3014 13.8389 13.9338 13.5895 13.5698ZM12.6148 13.8385C12.1212 13.8389 11.6275 13.8363 11.1339 13.8409C11.042 13.8417 10.9855 13.8155 10.9318 13.7386C8.28045 9.93482 5.62695 6.13231 2.97389 2.32964C2.94944 2.29463 2.92716 2.25803 2.88809 2.19813C3.37232 2.19813 3.83124 2.21636 4.28783 2.19119C4.55794 2.17629 4.70681 2.27134 4.85974 2.49154C7.45045 6.22143 10.0514 9.94423 12.6501 13.6686C12.6838 13.7169 12.7164 13.766 12.7606 13.8308C12.6971 13.8343 12.656 13.8383 12.6148 13.8385Z" fill="#666666"/>
</svg>
