<svg width="16" height="16" viewBox="0 0 16 16" fill="none" xmlns="http://www.w3.org/2000/svg">
<path d="M15.0941 4.58273C14.9337 3.69675 14.3922 3.12801 13.5457 2.97317C13.1964 2.90904 12.8406 2.86231 12.4858 2.84628C10.9812 2.77825 9.47587 2.72488 7.97077 2.66602C7.97031 2.68159 7.96985 2.69717 7.96939 2.71274C7.62329 2.71274 7.27697 2.7077 6.9311 2.71366C5.49608 2.73771 4.06084 2.75351 2.63339 2.93172C1.74558 3.04235 1.13058 3.57031 0.94573 4.44804C0.842428 4.93822 0.786081 5.44076 0.74531 5.94078C0.658041 7.01022 0.63651 8.0831 0.712555 9.15415C0.75974 9.81657 0.82021 10.4811 0.930384 11.1355C1.07492 11.9926 1.66564 12.5592 2.49733 12.6827C2.98979 12.7558 3.48707 12.8181 3.98411 12.8343C5.50983 12.8838 7.03646 12.9296 8.56287 12.9372C10.0845 12.945 11.6067 12.9088 13.1224 12.7496C13.5131 12.7084 13.8982 12.6461 14.2397 12.4273C14.8045 12.0656 15.0615 11.5221 15.1232 10.8837C15.2063 10.02 15.2906 9.15415 15.319 8.28765C15.36 7.04779 15.3156 5.80839 15.0941 4.58273ZM6.54904 10.014V5.63568C7.81982 6.36613 9.07732 7.08902 10.357 7.82473C9.07915 8.55953 7.82188 9.28219 6.54904 10.014Z" fill="#666666"/>
</svg>
