<svg width="403" height="156" viewBox="0 0 403 156" fill="none" xmlns="http://www.w3.org/2000/svg">
<path d="M148.424 124.64C142.024 124.64 136.264 123.189 131.144 120.288C126.109 117.387 122.141 113.376 119.24 108.256C116.339 103.051 114.888 97.0773 114.888 90.336C114.888 83.5093 116.339 77.536 119.24 72.416C122.141 67.296 126.109 63.328 131.144 60.512C136.264 57.6107 142.024 56.16 148.424 56.16C154.312 56.16 159.56 57.4827 164.168 60.128C168.861 62.7733 172.573 66.656 175.304 71.776C178.12 76.8107 179.528 82.9973 179.528 90.336C179.528 97.5893 178.163 103.776 175.432 108.896C172.701 114.016 168.989 117.941 164.296 120.672C159.688 123.317 154.397 124.64 148.424 124.64ZM149.064 116.576C153.843 116.576 158.109 115.509 161.864 113.376C165.704 111.157 168.691 108.085 170.824 104.16C173.043 100.149 174.152 95.5413 174.152 90.336C174.152 85.0453 173.043 80.4373 170.824 76.512C168.691 72.5867 165.704 69.5573 161.864 67.424C158.109 65.2053 153.843 64.096 149.064 64.096C144.371 64.096 140.147 65.2053 136.392 67.424C132.637 69.5573 129.651 72.5867 127.432 76.512C125.213 80.4373 124.104 85.0453 124.104 90.336C124.104 95.5413 125.213 100.149 127.432 104.16C129.651 108.085 132.637 111.157 136.392 113.376C140.147 115.509 144.371 116.576 149.064 116.576ZM174.408 124V103.776L175.304 90.208L174.024 76.64V29.024H183.112V124H174.408ZM208.422 124V56.8H217.51V124H208.422ZM213.03 41.952C211.153 41.952 209.574 41.312 208.294 40.032C207.014 38.752 206.374 37.216 206.374 35.424C206.374 33.632 207.014 32.1387 208.294 30.944C209.574 29.664 211.153 29.024 213.03 29.024C214.907 29.024 216.486 29.6213 217.766 30.816C219.046 32.0107 219.686 33.504 219.686 35.296C219.686 37.1733 219.046 38.752 217.766 40.032C216.571 41.312 214.993 41.952 213.03 41.952ZM244.333 124V48.352C244.333 42.3787 246.082 37.5573 249.581 33.888C253.08 30.2187 258.114 28.384 264.685 28.384C267.245 28.384 269.72 28.7253 272.109 29.408C274.498 30.0907 276.504 31.1573 278.125 32.608L275.053 39.392C273.773 38.2827 272.28 37.472 270.573 36.96C268.866 36.3627 267.032 36.064 265.069 36.064C261.229 36.064 258.285 37.1307 256.237 39.264C254.189 41.3973 253.165 44.5547 253.165 48.736V58.976L253.421 63.2V124H244.333ZM232.301 64.352V56.8H273.901V64.352H232.301Z" fill="#4E339C"/>
<path d="M273.756 124L314.716 34.4H324.06L365.02 124H355.036L317.404 39.904H321.244L283.612 124H273.756ZM289.884 100.064L292.7 92.384H344.796L347.612 100.064H289.884ZM377.922 124V56.8H387.01V124H377.922ZM382.53 41.952C380.653 41.952 379.074 41.312 377.794 40.032C376.514 38.752 375.874 37.216 375.874 35.424C375.874 33.632 376.514 32.1387 377.794 30.944C379.074 29.664 380.653 29.024 382.53 29.024C384.407 29.024 385.986 29.6213 387.266 30.816C388.546 32.0107 389.186 33.504 389.186 35.296C389.186 37.1733 388.546 38.752 387.266 40.032C386.071 41.312 384.493 41.952 382.53 41.952Z" fill="#4E339C"/>
<path d="M102.124 124H12.5752C2.58591 124 -0.878347 108.171 0.934427 102.657L2.58591 97.6068L2.66656 97.3752L3.06929 96.078L3.35154 95.2429C3.27139 95.1044 3.15067 94.9655 3.07027 94.8269C-0.0716593 90.3789 -0.837041 84.263 0.93541 78.8885L2.5869 73.8382L2.66754 73.6065L15.5178 34.5482C16.0414 33.0192 17.2902 32 18.7 32H89.6782C90.0005 32 90.3632 32.0464 90.645 32.1389C91.652 32.5096 92.4577 33.3435 92.8607 34.5019L105.308 71.0583C106.194 73.6529 104.502 76.4328 102.126 76.4328H99.0229H12.5772C11.3685 76.4328 10.2004 76.8499 9.19333 77.545C9.03228 77.6375 8.83067 77.7766 8.66963 77.9154C7.01815 79.2593 5.93043 81.4831 5.93043 83.985V84.4949C5.93043 84.9581 5.97076 85.3749 6.05115 85.8384C6.57485 89.0818 8.7906 91.6764 11.6505 92.2323C12.0132 92.3248 12.4159 92.3712 12.8189 92.3712H103.616C104.14 92.3712 104.623 92.5103 105.026 92.6955C105.389 92.9272 105.711 93.2051 105.993 93.5295C106.637 94.2246 107 95.1977 107 96.2632C107 98.4407 105.469 100.201 103.616 100.201H102.125H12.5762C11.5288 100.201 10.5217 100.479 9.6354 101.035C9.43403 101.082 9.23267 101.221 9.07138 101.36C7.17821 102.704 5.92945 105.066 5.92945 107.754V108.263C5.92945 108.912 6.01009 109.561 6.17114 110.163C6.81555 113.174 8.95066 115.445 11.6495 116.001C12.0122 116.093 12.4149 116.14 12.8179 116.14H103.615C103.978 116.14 104.34 116.186 104.663 116.325C105.186 116.511 105.629 116.835 105.992 117.298C106.636 117.993 106.999 118.966 106.999 120.032C106.999 122.209 105.468 123.97 103.615 123.97H102.33C102.259 123.975 102.195 124 102.124 124Z" fill="#4E339C"/>
<path fill-rule="evenodd" clip-rule="evenodd" d="M388.749 36.3378L388.863 43.7876C388.865 43.9244 388.728 44.0185 388.6 43.9674C387.665 43.596 386.657 43.3919 385.412 43.4109C384.085 43.4312 382.677 43.7889 381.6 44.3786C381.544 44.409 381.481 44.4099 381.422 44.3813C380.328 43.8259 378.909 43.5102 377.583 43.5305C376.338 43.5495 375.335 43.783 374.413 44.184C374.288 44.2378 374.147 44.1491 374.145 44.0123L374.031 36.5625L380.095 38.3537C380.727 38.5411 381.686 38.6621 382.31 38.4556L388.749 36.3378Z" fill="#36188F"/>
<path d="M365.194 34.0609C365.416 34.2994 365.669 34.4421 365.828 34.5207C366.016 34.6128 366.216 34.6864 366.413 34.7447L379.979 38.7514L379.979 38.7505C380.372 38.8669 380.798 38.9389 381.182 38.9659C381.513 38.9892 382.01 38.9948 382.455 38.8485L382.455 38.8494L392.257 35.6261L392.287 37.5448C391.874 37.9911 391.618 38.5719 391.579 39.1622L391.575 39.3539L391.583 39.5279C391.62 40.0142 391.777 40.4264 392.011 40.7669L391.68 46.2425L391.583 47.8572L397.007 47.7747L396.86 46.1639L396.361 40.7002C396.61 40.3124 396.762 39.8381 396.754 39.2749C396.744 38.6204 396.46 37.9687 395.988 37.4886L395.941 34.4134L396.759 34.145L396.761 34.1451C396.929 34.0896 397.511 33.8801 397.8 33.2382C398.173 32.4085 397.725 31.7329 397.508 31.4926C397.283 31.2449 397.022 31.0985 396.859 31.0183C396.766 30.9723 396.669 30.9311 396.571 30.8941L396.273 30.7946L382.706 26.7866L382.705 26.787C382.312 26.6714 381.887 26.6005 381.505 26.5735C381.174 26.5501 380.676 26.5433 380.232 26.6886L380.229 26.6899L365.927 31.3939L361.026 33.0055L365.194 34.0609ZM394.925 40.0994C394.896 40.1267 394.865 40.1529 394.832 40.178C394.825 40.1822 394.82 40.1889 394.817 40.1961C394.82 40.1889 394.824 40.1827 394.831 40.1784C394.896 40.1281 394.956 40.0734 395.009 40.0136L394.925 40.0994Z" fill="#36188F"/>
</svg>
