<svg width="32" height="32" viewBox="0 0 32 32" fill="none" xmlns="http://www.w3.org/2000/svg">
<path d="M4 13.1395C4 11.7741 5.10681 10.6673 6.47214 10.6673V10.6673C7.40851 10.6673 8.26452 10.1383 8.68328 9.30075L9.77778 7.11176C10.1032 6.46101 10.2658 6.13563 10.5097 5.89895C10.7181 5.69663 10.968 5.54214 11.2422 5.44621C11.5629 5.33398 11.9267 5.33398 12.6543 5.33398H19.3457C20.0733 5.33398 20.4371 5.33398 20.7578 5.44621C21.032 5.54214 21.2819 5.69663 21.4904 5.89895C21.7342 6.13563 21.8968 6.46101 22.2222 7.11176L23.3167 9.30075C23.7355 10.1383 24.5915 10.6673 25.5279 10.6673V10.6673C26.8932 10.6673 28 11.7741 28 13.1395V20.6673C28 23.4957 28 24.91 27.1213 25.7886C26.2426 26.6673 24.8284 26.6673 22 26.6673H10C7.17157 26.6673 5.75736 26.6673 4.87868 25.7886C4 24.91 4 23.4957 4 20.6673V13.1395Z" stroke="white" stroke-width="2"/>
<circle cx="15.9993" cy="17.3333" r="4.33333" stroke="white" stroke-width="2"/>
</svg>
