<svg width="18" height="18" viewBox="0 0 18 18" fill="none" xmlns="http://www.w3.org/2000/svg">
<path d="M9.12 0.325C14.0006 0.325 17.955 4.27938 17.955 9.16C17.955 14.0406 14.0006 17.995 9.12 17.995C4.23937 17.995 0.285 14.0406 0.285 9.16C0.285 4.27938 4.23937 0.325 9.12 0.325ZM9.12 16.285C13.0387 16.285 16.245 13.1144 16.245 9.16C16.245 5.24125 13.0387 2.035 9.12 2.035C5.16562 2.035 1.995 5.24125 1.995 9.16C1.995 13.1144 5.16562 16.285 9.12 16.285ZM11.2931 12.58L8.265 10.3713C8.15812 10.3 8.1225 10.1575 8.1225 10.0506V4.1725C8.1225 3.95875 8.30062 3.745 8.55 3.745H9.69C9.90375 3.745 10.1175 3.95875 10.1175 4.1725V9.23125L12.4687 10.9769C12.6825 11.1194 12.7181 11.3688 12.5756 11.5825L11.8987 12.4731C11.7562 12.6869 11.5069 12.7225 11.2931 12.58Z" fill="#D9D9D9"/>
</svg>
