<svg width="25" height="25" viewBox="0 0 25 25" fill="none" xmlns="http://www.w3.org/2000/svg">
<g clip-path="url(#clip0_664_19190)">
<path d="M18.6178 23.6248H6.43116C6.17463 23.6188 5.92179 23.5622 5.68712 23.4584C5.45244 23.3546 5.24051 23.2056 5.06345 23.0199C4.88638 22.8341 4.74765 22.6153 4.65518 22.376C4.5627 22.1366 4.51829 21.8814 4.5245 21.6248V8.44482H5.85783V21.6248C5.85147 21.7063 5.86127 21.7882 5.88668 21.8659C5.91208 21.9435 5.95259 22.0154 6.00587 22.0774C6.05915 22.1393 6.12416 22.1901 6.19714 22.2269C6.27013 22.2636 6.34966 22.2856 6.43116 22.2915H18.6178C18.6993 22.2856 18.7789 22.2636 18.8519 22.2269C18.9248 22.1901 18.9898 22.1393 19.0431 22.0774C19.0964 22.0154 19.1369 21.9435 19.1623 21.8659C19.1877 21.7882 19.1975 21.7063 19.1912 21.6248V8.44482H20.5245V21.6248C20.5307 21.8814 20.4863 22.1366 20.3938 22.376C20.3013 22.6153 20.1626 22.8341 19.9855 23.0199C19.8085 23.2056 19.5966 23.3546 19.3619 23.4584C19.1272 23.5622 18.8744 23.6188 18.6178 23.6248Z" fill="#8A63FF"/>
<path d="M21.0443 6.95785H3.85758C3.68077 6.95785 3.5112 6.88761 3.38618 6.76258C3.26116 6.63756 3.19092 6.46799 3.19092 6.29118C3.19092 6.11437 3.26116 5.9448 3.38618 5.81977C3.5112 5.69475 3.68077 5.62451 3.85758 5.62451H21.0443C21.2211 5.62451 21.3906 5.69475 21.5157 5.81977C21.6407 5.9448 21.7109 6.11437 21.7109 6.29118C21.7109 6.46799 21.6407 6.63756 21.5157 6.76258C21.3906 6.88761 21.2211 6.95785 21.0443 6.95785Z" fill="#8A63FF"/>
<path d="M14.5244 9.62451H15.8577V19.6245H14.5244V9.62451Z" fill="#8A63FF"/>
<path d="M9.19092 9.62451H10.5243V19.6245H9.19092V9.62451Z" fill="#8A63FF"/>
<path d="M15.8576 4.86484H14.5909V3.62484H10.4576V4.86484H9.19092V3.62484C9.19049 3.28247 9.32178 2.95305 9.55759 2.70484C9.79339 2.45662 10.1156 2.30862 10.4576 2.2915H14.5909C14.9329 2.30862 15.2551 2.45662 15.4909 2.70484C15.7267 2.95305 15.858 3.28247 15.8576 3.62484V4.86484Z" fill="#8A63FF"/>
</g>
<defs>
<clipPath id="clip0_664_19190">
<rect width="24" height="24" fill="white" transform="translate(0.524414 0.958008)"/>
</clipPath>
</defs>
</svg>
