<svg width="208" height="205" viewBox="0 0 208 205" fill="none" xmlns="http://www.w3.org/2000/svg">
<path d="M194.633 191.062L181.188 170.634M194.633 191.062L202.556 215.098M194.633 191.062L198.053 193.26M194.633 191.062L189.385 183.487M181.188 170.634L179.403 167.923M181.188 170.634L183.566 173.036M202.556 215.098L204.113 240.839M202.556 215.098L196.751 207.681M202.556 215.098L207.094 216.716M198.053 193.26L207.094 216.716M198.053 193.26L201.003 191.853M198.053 193.26L183.566 173.036M189.385 183.487L176.007 162.763M189.385 183.487L196.751 207.681M189.385 183.487L176.312 177.794M179.403 167.923L176.007 162.763M179.403 167.923L185.836 172.847M183.566 173.036L185.836 172.847M176.007 162.763L169.496 157.129M176.007 162.763L163.447 157.804M185.836 172.847L201.003 191.853M185.836 172.847L187.836 169.477M169.496 157.129L168.452 156.226M169.496 157.129L187.836 169.477M163.447 157.804L161.166 155.827L161.14 155.803L145.761 142.474M163.447 157.804L143.31 159.773M163.447 157.804L176.312 177.794M168.452 156.226L159.479 148.462M168.452 156.226L170.13 152.007M187.836 169.477L203.56 186.393M187.836 169.477L189.564 163.22M159.479 148.462L159.165 148.19L157.638 146.869M159.479 148.462L170.13 152.007M170.13 152.007L189.564 163.22M170.13 152.007L171.746 146.343M157.638 146.869L149.411 143.131M157.638 146.869L145.761 142.474M149.411 143.131L141.023 139.319M149.411 143.131L150.636 140.387M145.761 142.474L124.498 132.808M141.023 139.319L135.574 136.843L130.518 135.001M141.023 139.319L150.636 140.387M150.636 140.387L171.746 146.343M150.636 140.387L152.445 134.11M130.518 135.001L124.498 132.808M130.518 135.001L131.744 131.971M124.498 132.808L120.477 132.219M124.498 132.808L109.939 138.245M131.744 131.971L120.477 132.219M131.744 131.971L152.445 134.11M131.744 131.971L134.287 123.15M120.477 132.219L112.955 131.117M109.939 138.245L89.833 135.275M109.939 138.245L99.917 148.036L99.88 148.073L93.684 154.128M109.939 138.245L128.17 146.577M112.955 131.117L101.123 129.384M112.955 131.117L115.866 122.384M101.123 129.384L98.127 129.746M101.123 129.384L89.833 135.275M115.866 122.384L134.287 123.15M115.866 122.384L119.214 111.683M115.866 122.384L100.389 123.144M98.127 129.746L87.039 131.085M98.127 129.746L100.389 123.144M89.833 135.275L79.947 136.464L79.85 136.475L79.688 136.495L69.249 137.75M89.833 135.275L79.178 151.942M87.039 131.085L81.329 131.775L81.291 131.78M87.039 131.085L88.929 125.352M100.389 123.144L104.528 109.944M100.389 123.144L88.929 125.352M81.291 131.78L81.128 131.8M81.291 131.78L82.201 128.819M88.929 125.352L93.827 108.795M88.929 125.352L82.201 128.819M81.128 131.8L80.956 131.82M81.128 131.8L82.201 128.819M82.201 128.819L87.777 108.3M80.956 131.82L77.222 132.271M80.956 131.82L86.721 108.487M77.222 132.271L54.363 141.31M77.222 132.271L69.249 137.75M86.721 108.487L87.777 108.3M86.721 108.487L91.959 83.3071M54.363 141.31L34.026 155.871L32.043 158.075M54.363 141.31L49.571 145.526M69.249 137.75L49.571 145.526M69.249 137.75L64.297 153.701M32.043 158.075L17.806 174.537M32.043 158.075L37.435 168.349M32.043 158.075L49.571 145.526M49.571 145.526L50.102 159.29M17.806 174.537L17.512 174.967L5.912 197.371M17.806 174.537L7.812 193.84M17.806 174.537L27.145 180.246M37.435 168.349L27.145 180.246M37.435 168.349L49.593 185.323M37.435 168.349L50.102 159.29M5.912 197.371L0 221.64M5.912 197.371L7.812 193.84M7.812 193.84L2.717 214.766M7.812 193.84L19.94 194.18M27.145 180.246L19.94 194.18M27.145 180.246L44.343 191.393M0 221.64L0.114 246.187M0 221.64L2.717 214.766M0.114 246.187L6.387 269.386M0.114 246.187L2.822 235.911M2.717 214.766L2.822 235.911M2.717 214.766L16.267 209.331M6.387 269.386L18.469 289.674M6.387 269.386L8.23 255.84M2.822 235.911L8.23 255.84M2.822 235.911L16.369 224.618M18.469 289.674L25.857 299.258L43.615 315.847M18.469 289.674L35.586 305.653M18.469 289.674L18.632 273.245M8.23 255.84L18.632 273.245M8.23 255.84L20.295 238.942M43.615 315.847L65.466 326.761M43.615 315.847L35.586 305.653M35.586 305.653L56.648 316.146M35.586 305.653L33.349 286.922M18.632 273.245L33.349 286.922M18.632 273.245L27.818 251.434M65.466 326.761L79.244 332.206L103.104 336.6M65.466 326.761L89.934 331.16M65.466 326.761L56.648 316.146M103.104 336.6L127.599 334.312M103.104 336.6L89.934 331.16M89.934 331.16L115.32 328.758M89.934 331.16L80.242 320.353M56.648 316.146L80.242 320.353M56.648 316.146L51.43 295.865M127.599 334.312L141.492 332.134L163.538 323.459M127.599 334.312L151.024 325.342M127.599 334.312L115.32 328.758M163.538 323.459L182.61 308.929M163.538 323.459L151.024 325.342M151.024 325.342L139.845 319.56M151.024 325.342L171.708 310.279M115.32 328.758L139.845 319.56M115.32 328.758L104.724 317.999M182.61 308.929L192.495 299.657L205.616 281.684M182.61 308.929L197.373 289.541M182.61 308.929L171.708 310.279M205.616 281.684L212.801 265.951L219.157 247.148M205.616 281.684L213.388 260.387M205.616 281.684L197.373 289.541M197.373 289.541L188.184 290.19M197.373 289.541L206.74 266.613M171.708 310.279L161.741 304.178M171.708 310.279L188.184 290.19M219.157 247.148L223.421 229.11M219.157 247.148L219.708 226.666M219.157 247.148L213.388 260.387M213.388 260.387L206.74 266.613M213.388 260.387L215.221 237.231M223.421 229.11L227.022 207.441M223.421 229.11L223.001 211.823M219.708 226.666L215.221 237.231M219.708 226.666L223.001 211.823M219.708 226.666L214.431 205.926M227.022 207.441L228.906 189.888L233.071 194.153L239.238 199.966M227.022 207.441L225.748 193.973M223.001 211.823L225.748 193.973M223.001 211.823L216.955 194.256M239.238 199.966L223.657 183.437M239.238 199.966L246.985 203.691M225.748 193.973L226.388 187.308M225.748 193.973L219.045 180.169M139.845 319.56L161.741 304.178M139.845 319.56L128.371 309.096M104.724 317.999L128.371 309.096M104.724 317.999L92.712 297.333M104.724 317.999L80.242 320.353M80.242 320.353L71.697 299.414M161.741 304.178L179.44 283.722M161.741 304.178L149.492 294.238M128.371 309.096L149.492 294.238M128.371 309.096L112.971 289.657M92.712 297.333L71.697 299.414M92.712 297.333L112.971 289.657M92.712 297.333L81.119 268.498M188.184 290.19L179.44 283.722M188.184 290.19L199.247 266.478M179.44 283.722L191.651 259.641M179.44 283.722L166.576 274.492M149.492 294.238L166.576 274.492M149.492 294.238L131.078 276.887M112.971 289.657L131.078 276.887M112.971 289.657L95.615 262.959M206.74 266.613L199.247 266.478M206.74 266.613L210.03 241.754M199.247 266.478L191.651 259.641M199.247 266.478L204.113 240.839M191.651 259.641L197.514 233.674M191.651 259.641L178.376 251.26M166.576 274.492L178.376 251.26M166.576 274.492L145.736 259.945M131.078 276.887L145.736 259.945M131.078 276.887L108.582 253.785M204.113 240.839L197.514 233.674M204.113 240.839L210.03 241.754M197.514 233.674L196.751 207.681M197.514 233.674L184.066 226.205M178.376 251.26L184.066 226.205M178.376 251.26L155.879 240.03M145.736 259.945L155.879 240.03M145.736 259.945L119.09 241.639M210.03 241.754L215.221 237.231M210.03 241.754L207.094 216.716M196.751 207.681L183.373 201.127M184.066 226.205L183.373 201.127M184.066 226.205L160.812 218.523M155.879 240.03L160.812 218.523M155.879 240.03L126.372 227.388M215.221 237.231L211.032 213.836M207.094 216.716L211.032 213.836M183.373 201.127L176.312 177.794M183.373 201.127L160.278 196.986M160.812 218.523L160.277 196.986M160.812 218.523L129.961 211.936M211.032 213.836L214.431 205.926M211.032 213.836L201.003 191.853M201.003 191.853L203.56 186.393M176.312 177.794L154.289 176.958M143.31 159.773L128.17 146.577M143.31 159.773L117.587 169.694M143.31 159.773L154.288 176.958M71.697 299.414L51.43 295.865M71.697 299.414L66.014 270.052M51.43 295.865L34.145 287.314L33.349 286.922M51.43 295.865L51.426 267.565M214.431 205.926L216.955 194.256M214.431 205.926L203.56 186.393M203.56 186.393L205.555 177.652M216.955 194.256L219.045 180.169M216.955 194.256L205.555 177.652M205.555 177.652L207.224 167.006M205.555 177.652L189.564 163.22M189.564 163.22L191.072 155.446M219.045 180.169L219.076 179.822M219.045 180.169L207.224 167.006M207.224 167.006L207.565 163.389M207.224 167.006L191.072 155.446M191.072 155.446L192.272 145.414M191.072 155.446L171.746 146.343M192.272 145.414L173.133 138.706M192.272 145.414L198.215 148.46M192.272 145.414L192.83 138.637M171.746 146.343L173.133 138.706M173.133 138.706L173.161 138.492L174.454 128.936M173.133 138.706L152.445 134.11M174.454 128.936L154.3 125.378M174.454 128.936L175.799 119.055M174.454 128.936L189.546 132.645M152.445 134.11L154.3 125.378M154.3 125.378L156.198 116.41M154.3 125.378L134.287 123.15M175.799 119.055L156.198 116.41M175.799 119.055L176.923 108.09M175.799 119.055L182.923 120.05M156.198 116.41L157.886 106.283M156.198 116.41L137.083 113.921L136.869 113.893M134.287 123.15L136.869 113.893M136.869 113.893L139.216 103.471M136.869 113.893L119.214 111.683M157.886 106.283L176.923 108.09M157.886 106.283L159.665 95.1991M157.886 106.283L139.216 103.471M139.216 103.471L141.658 91.8031M139.216 103.471L122.259 99.8771M119.214 111.683L122.259 99.8771M119.214 111.683L104.528 109.944M122.259 99.8771L125.362 86.6931M122.259 99.8771L108.254 95.7591M104.528 109.944L108.254 95.7591M104.528 109.944L93.827 108.795M108.254 95.7591L111.967 80.2291M108.254 95.7591L98.171 91.4191M93.827 108.795L98.171 91.4191M93.827 108.795L87.777 108.3M98.171 91.4191L102.398 72.8921M98.171 91.4191L92.634 87.1711M87.777 108.3L92.634 87.1711M92.634 87.1711L97.249 65.2151M92.634 87.1711L91.959 83.3071M176.923 108.09L176.958 108.091M176.923 108.09L176.929 108.033M159.665 95.1991L141.658 91.8031M159.665 95.1991L161.639 85.1481M159.665 95.1991L171.049 96.0661M141.658 91.8031L144.278 81.2051M141.658 91.8031L125.362 86.6931M125.362 86.6931L128.623 74.7131M125.362 86.6931L111.967 80.2291M111.967 80.2291L115.808 66.1181M111.967 80.2291L102.398 72.8921M102.398 72.8921L106.714 56.0521M102.398 72.8921L97.249 65.2151M97.249 65.2151L96.818 57.7361M97.249 65.2151L101.915 45.2491M91.959 83.3071L96.818 57.7361M295.18 151.493L292.368 145.806L292.325 145.718M295.18 151.493L297.253 160.163M295.18 151.493L302.201 158.985M292.325 145.718L291.656 144.366M292.325 145.718L292.411 145.815M297.253 160.163L289.063 144.271M297.253 160.163L296.903 169.483M297.253 160.163L305.007 167.728M302.201 158.985L305.007 167.728M302.201 158.985L308.261 159.039M302.201 158.985L297.38 151.397M291.656 144.366L290.507 142.041M291.656 144.366L296.588 146.704M292.411 145.815L297.38 151.397M292.411 145.815L296.588 146.704M290.507 142.041L288.259 137.494M290.507 142.041L294.892 138.695M296.588 146.704L303.138 152.129M296.588 146.704L302.069 141.687M288.259 137.494L287.88 136.728M288.259 137.494L294.892 138.695M294.892 138.695L302.069 141.687M294.892 138.695L300.285 128.864M287.88 136.728L287.87 136.708M287.88 136.728L293.517 127.649M287.87 136.708L285.403 130.294M287.87 136.708L288.877 143.091L288.879 143.103L289.063 144.271M293.517 127.649L300.285 128.864M293.517 127.649L299.417 112.824M293.517 127.649L287.181 127.647M285.403 130.294L284.662 128.367L284.604 128.217M285.403 130.294L287.181 127.647M289.063 144.271L288.579 143.047L288.566 143.014L280.064 121.493M289.063 144.271L287.643 152.582M284.604 128.217L283.414 125.123M284.604 128.217L287.181 127.647M287.181 127.647L293.902 112.151M283.414 125.123L281.99 121.424M283.414 125.123L289.315 112.15M281.99 121.424L281.416 119.93M281.99 121.424L285.964 112.814M289.315 112.15L293.902 112.151M289.315 112.15L297.114 91.8031M289.315 112.15L285.964 112.814M281.416 119.93L279.921 116.043M281.416 119.93L284.078 114.095M285.964 112.814L294.603 90.7921M285.964 112.814L284.078 114.095M279.921 116.043L272.179 91.0401M279.921 116.043L280.064 121.493M284.078 114.095L293.466 90.1421M272.179 91.0401L264.382 64.0251M272.179 91.0401L271.199 93.5671M280.064 121.493L271.199 93.5671M280.064 121.493L277.426 127.825M264.382 64.0251L257.295 37.6931M264.382 64.0251L262.206 63.0681M271.199 93.5671L262.206 63.0681M271.199 93.5671L267.288 97.1431M257.295 37.6931L250.796 13.6611M257.295 37.6931L253.956 33.1361M262.206 63.0681L253.956 33.1361M262.206 63.0681L256.982 63.3821M250.796 13.6611L245.134 -4.7999M250.796 13.6611L246.35 5.6941M253.956 33.1361L246.35 5.6941M253.956 33.1361L247.471 30.0911M245.134 -4.7999L240.594 -17.5129L234.256 -30.3229M245.134 -4.7999L239.668 -15.5889M246.35 5.6941L239.668 -15.5889M246.35 5.6941L238.692 -0.481903M234.256 -30.3229L229.532 -36.2149L219.107 -47.7499M234.256 -30.3229L224.633 -40.8779M234.256 -30.3229L239.668 -15.5889M239.668 -15.5889L230.945 -24.3399M219.107 -47.7499L206.086 -56.1199M219.107 -47.7499L224.633 -40.8779M224.633 -40.8779L212.37 -48.4369M206.086 -56.1199L191.376 -60.7979M206.086 -56.1199L212.192 -48.6539L212.37 -48.4369M191.376 -60.7979L175.954 -61.3999M191.376 -60.7979L198.326 -52.5099M212.37 -48.4369L198.326 -52.5099M212.37 -48.4369L219.544 -30.4199M175.954 -61.3999L160.882 -57.8759M175.954 -61.3999L183.444 -52.7449M198.326 -52.5099L206.266 -33.4299M160.882 -57.8759L147.194 -50.4779M160.882 -57.8759L168.764 -49.1159M183.444 -52.7449L168.764 -49.1159M183.444 -52.7449L192.01 -33.0939M183.444 -52.7449L198.326 -52.5109M160.882 -57.8749L154.874 -55.9389L140.938 -48.6789M147.194 -50.4779L140.938 -48.6779L129.459 -37.9969M147.194 -50.4779L135.844 -39.6929M147.194 -50.4779L155.311 -41.8879M168.764 -49.1159L155.311 -41.8879M168.764 -49.1159L177.783 -29.4209M129.459 -37.9969L121.233 -24.6109M129.459 -37.9969L135.844 -39.6929M121.233 -24.6109L115.579 -15.0839L111.216 -0.819901M121.233 -24.6109L116.778 -9.4539M121.233 -24.6109L127.619 -26.2649M135.844 -39.6929L127.619 -26.2649M135.844 -39.6929L144.033 -31.5519M111.216 -0.819901L106.2 14.7061M111.216 -0.819901L111.123 14.2541M111.216 -0.819901L116.778 -9.4539M116.778 -9.4539L116.466 6.4711M116.778 -9.4539L123.033 -11.1459M127.619 -26.2649L123.033 -11.1459M127.619 -26.2649L135.715 -18.8359M106.2 14.7061L101.699 34.4621M106.2 14.7061L106.268 27.9781M111.123 14.2541L106.268 27.9781M111.123 14.2541L115.342 29.1011M111.123 14.2541L116.466 6.4711M101.699 34.4621L96.818 57.7361M101.699 34.4621L101.915 45.2491M106.268 27.9781L101.915 45.2491M106.268 27.9781L110.782 41.1281M101.915 45.2491L106.714 56.0521M161.639 85.1481L144.278 81.2051M161.639 85.1481L166.042 85.4091M161.639 85.1481L162.888 78.6961M144.278 81.2051L146.798 70.9901M144.278 81.2051L128.623 74.7131M128.623 74.7131L131.747 63.4401M128.623 74.7131L115.808 66.1181M115.808 66.1181L119.46 53.2391M115.808 66.1181L106.714 56.0521M106.714 56.0521L110.782 41.1281M146.798 70.9901L131.747 63.4401M146.798 70.9901L149.762 62.4021M146.798 70.9901L161.023 74.7261M131.747 63.4401L135.334 54.0621M131.747 63.4401L119.46 53.2391M119.46 53.2391L123.591 42.6921M119.46 53.2391L110.782 41.1281M110.782 41.1281L115.342 29.1011M149.762 62.4021L135.334 54.0621M149.762 62.4021L155.988 64.2481M149.762 62.4021L152.646 57.3131M135.334 54.0621L139.263 48.0421M135.334 54.0621L123.591 42.6921M123.591 42.6921L128.103 36.2511M123.591 42.6921L115.342 29.1011M115.342 29.1011L120.333 22.0631M139.263 48.0421L128.103 36.2511M139.263 48.0421L143.677 45.4291M139.263 48.0421L151.996 55.9641M128.103 36.2511L133.152 33.9441M128.103 36.2511L120.333 22.0631M120.333 22.0631L125.915 20.0321M120.333 22.0631L116.466 6.4711M116.466 6.4711L122.454 4.6511M143.677 45.4291L133.152 33.9441M143.677 45.4291L147.844 48.0631M143.677 45.4291L146.883 46.4931M133.152 33.9441L139.344 36.8841M133.152 33.9441L125.915 20.0321M125.915 20.0321L132.787 24.1961M125.915 20.0321L122.454 4.6511M122.454 4.6511L129.884 10.0301M122.454 4.6511L123.033 -11.1459M123.033 -11.1459L130.875 -4.6539M139.344 36.8841L146.282 45.5061M139.344 36.8841L132.787 24.1961M132.787 24.1961L140.506 34.9191L146.282 45.5061M132.787 24.1961L129.884 10.0301M129.884 10.0301L138.263 22.9071M129.884 10.0301L130.875 -4.6539M130.875 -4.6539L139.759 10.2771M135.715 -18.8359L130.875 -4.6529M135.715 -18.8359L144.924 -2.0919M135.715 -18.8359L144.033 -31.5519M147.844 48.0631L148.625 49.3431M147.844 48.0631L146.883 46.4931M146.883 46.4931L146.282 45.5061M138.263 22.9071L148.453 42.4791M138.263 22.9071L139.759 10.2771M139.759 10.2771L150.587 32.6351M139.759 10.2771L144.924 -2.0919M144.924 -2.0919L156.174 22.7171M144.924 -2.0919L153.378 -13.3519M144.033 -31.5519L153.378 -13.3519M144.033 -31.5519L155.311 -41.8879M153.378 -13.3519L164.814 13.4141M155.311 -41.8879L164.593 -22.6849M164.593 -22.6849L153.378 -13.3499M164.593 -22.6849L175.96 5.4001M164.593 -22.6849L177.783 -29.4209M177.783 -29.4209L188.827 -0.741901M177.783 -29.4209L192.01 -33.0939M219.544 -30.4199L230.945 -24.3399M219.544 -30.4199L206.266 -33.4299M219.544 -30.4199L228.325 -4.4099M224.633 -40.8799L230.945 -24.3399M230.945 -24.3399L238.692 -0.481903M238.692 -0.481903L228.325 -4.4099M238.692 -0.481903L247.471 30.0911M148.453 42.4791L149.842 51.3361L149.879 51.5701M148.453 42.4791L159.966 67.9221M148.453 42.4791L150.587 32.6351M150.587 32.6351L162.838 61.4241M150.587 32.6351L156.174 22.7171M156.174 22.7171L168.918 54.4691M156.174 22.7171L164.814 13.4141M164.814 13.4141L177.774 47.5431M164.814 13.4141L175.96 5.4001M175.96 5.4001L188.841 41.1401M175.96 5.4001L188.827 -0.741901M188.827 -0.741901L201.334 35.7261M188.827 -0.741901L202.493 -4.5799M192.01 -33.0939L202.493 -4.5799M192.01 -33.0939L206.266 -33.4299M202.493 -4.5799L214.353 31.6881M202.493 -4.5799L215.98 -5.8269M206.266 -33.4299L215.98 -5.8269M215.98 -5.8269L226.961 29.3231M215.98 -5.8269L228.325 -4.4099M228.325 -4.4099L238.254 28.7911M247.471 30.0911L238.254 28.7911M247.471 30.0911L256.982 63.3821M159.966 67.9221L160.457 73.5211M159.966 67.9221L173.003 97.1561M159.966 67.9221L162.838 61.4241M162.838 61.4241L176.648 94.0851M162.838 61.4241L168.918 54.4691M168.918 54.4691L183.214 90.1221M168.918 54.4691L177.774 47.5431M177.774 47.5431L192.238 85.5471M177.774 47.5431L188.841 41.1401M188.841 41.1401L203.134 80.6701M188.841 41.1401L201.334 35.7261M201.334 35.7261L215.13 75.8411M201.334 35.7261L214.353 31.6881M214.353 31.6881L227.359 71.4091M214.353 31.6881L226.961 29.3231M226.961 29.3231L238.939 67.6941M226.961 29.3231L238.254 28.7911M238.254 28.7911L249.038 64.9621M256.982 63.3821L249.038 64.9621M256.982 63.3821L267.288 97.1431M173.003 97.1561L172.492 99.1351M173.003 97.1561L187.333 127.247M173.003 97.1561L176.648 94.0851M176.648 94.0851L191.778 127.463M176.648 94.0851L183.214 90.1221M183.214 90.1221L198.828 126.363M183.214 90.1221L192.238 85.5471M192.238 85.5471L207.988 124.028M192.238 85.5471L203.134 80.6701M203.134 80.6701L218.653 120.593M203.134 80.6701L215.13 75.8411M215.13 75.8411L230.069 116.301M215.13 75.8411L227.359 71.4091M227.359 71.4091L241.413 111.458M227.359 71.4091L238.939 67.6941M238.939 67.6941L251.869 106.413M238.939 67.6941L249.038 64.9621M249.038 64.9621L260.688 101.529M267.288 97.1431L260.688 101.529M267.288 97.1431L277.426 127.825M187.333 127.247L185.766 125.75M187.333 127.247L202.307 155.643L207.453 158.539M187.333 127.247L191.778 127.463M191.778 127.463L207.453 158.539M191.778 127.463L198.828 126.363M198.828 126.363L214.867 159.741M198.828 126.363L207.988 124.028M207.988 124.028L224.029 159.173M207.988 124.028L218.653 120.593M218.653 120.593L234.329 156.834M218.653 120.593L230.069 116.301M230.069 116.301L245.041 152.881M230.069 116.301L241.413 111.458M241.413 111.458L255.399 147.597M241.413 111.458L251.869 106.413M251.869 106.413L264.659 141.355M251.869 106.413L260.296 101.745L260.688 101.529M260.688 101.529L272.163 134.604M277.426 127.825L272.163 134.604M277.426 127.825L287.643 152.582M207.453 158.539L223.657 183.437M207.453 158.539L214.867 159.741M214.867 159.741L231.33 186.288M214.867 159.741L224.029 159.173M224.029 159.173L240.387 186.991M224.029 159.173L234.329 156.834M234.329 156.834L250.223 185.452M234.329 156.834L245.041 152.881M245.041 152.881L260.148 181.766M245.041 152.881L255.399 147.597M255.399 147.597L269.461 176.196M255.399 147.597L264.659 141.355M264.659 141.355L266.334 144.977L266.365 145.047L266.927 146.259L266.97 146.355L277.497 169.128M264.659 141.355L272.163 134.604M272.163 134.604L283.69 161.064M287.643 152.582L283.69 161.064M287.643 152.582L296.903 169.483M223.657 183.437L217.906 178.623M223.657 183.437L231.33 186.288M231.33 186.288L246.985 203.691M231.33 186.288L240.387 186.991M240.387 186.991L255.779 205.09M240.387 186.991L250.223 185.452M250.223 185.452L265.03 204.018M250.223 185.452L260.148 181.766M260.148 181.766L274.094 200.54M260.148 181.766L269.461 176.196M269.461 176.196L282.339 194.901M269.461 176.196L277.497 169.128M277.497 169.128L289.182 187.48M277.497 169.128L283.69 161.064M283.69 161.064L294.14 178.802M296.903 169.483L294.14 178.802M296.903 169.483L305.587 177.027M246.985 203.691L255.779 205.09M246.985 203.691L262.051 209.564L270.459 211.205M255.779 205.09L270.459 211.205M255.779 205.09L265.03 204.018M265.03 204.018L279.04 210.413M265.03 204.018L274.094 200.54M274.094 200.54L287.205 207.232M274.094 200.54L282.339 194.901M282.339 194.901L294.39 201.88M282.339 194.901L289.182 187.48M289.182 187.48L300.087 194.715M289.182 187.48L293.963 179.113L294.14 178.802M294.14 178.802L303.898 186.231M305.587 177.027L303.898 186.231M305.587 177.027L312.935 175.316M305.587 177.027L305.007 167.728M305.007 167.728L311.607 166.95M270.459 211.205L279.04 210.413M279.04 210.413L287.205 207.232M287.205 207.232L294.39 201.88M287.205 207.232L298.549 202.14L304.715 197.446M294.39 201.88L304.715 197.446M294.39 201.88L300.087 194.715M300.087 194.715L309.361 191.107M300.087 194.715L303.898 186.231M303.898 186.231L312.157 183.554M312.935 175.316L312.157 183.554M312.935 175.316L319.439 164.871M312.935 175.316L311.607 166.95M311.607 166.95L317.513 158.163M311.607 166.95L308.261 159.039M308.261 159.039L313.785 151.777M308.261 159.039L303.138 152.129M297.38 151.397L303.138 152.129M304.715 197.446L309.361 191.107M309.361 191.107L312.157 183.554M309.361 191.107L317.539 177.397M312.157 183.554L319.436 171.429M319.439 164.871L319.436 171.429M319.439 164.871L324.841 147.656M319.439 164.871L317.513 158.163M317.513 158.163L322.463 143.027M317.513 158.163L313.785 151.777M313.785 151.777L318.5 138.537M313.785 151.777L308.517 146.152M303.138 152.129L308.517 146.152M319.436 171.429L317.539 177.397M319.436 171.429L325.479 152.101M317.539 177.397L324.367 156.066L325.479 152.101M325.479 152.101L324.841 147.656M325.479 152.101L330.645 127.905M324.841 147.656L329.471 125.714M324.841 147.656L322.463 143.027M322.463 143.027L326.757 123.249M322.463 143.027L318.5 138.537M318.5 138.537L322.684 120.681M318.5 138.537L313.23 134.498M308.517 146.152L313.23 134.498M308.517 146.152L302.069 141.687M313.23 134.498L317.533 118.19M313.23 134.498L307.013 131.196M302.069 141.687L307.013 131.196M307.013 131.196L311.661 115.951M307.013 131.196L300.285 128.864M329.471 125.714L330.645 127.905M329.471 125.714L333.802 101.982M329.471 125.714L326.757 123.249M326.757 123.249L330.843 101.433M326.757 123.249L322.684 120.681M322.684 120.681L326.753 100.506M322.684 120.681L317.533 118.19M317.533 118.19L321.817 99.2681M317.533 118.19L311.661 115.951M311.661 115.951L316.374 97.8021M311.661 115.951L305.479 114.123M300.285 128.864L305.479 114.123M305.479 114.123L310.807 96.2131M305.479 114.123L299.417 112.824M330.645 127.905L335.431 102.12M330.645 127.905L335.646 101.844M333.802 101.982L335.431 102.12M333.802 101.982L337.745 79.3141M333.802 101.982L330.843 101.433M330.843 101.433L334.63 80.1511M330.843 101.433L326.753 100.506M326.753 100.506L330.622 80.3311M326.753 100.506L321.817 99.2681M321.817 99.2681L326 79.8431M321.817 99.2681L316.374 97.8021M316.374 97.8021L321.084 78.7151M316.374 97.8021L310.807 96.2131M310.807 96.2131L310.984 95.5861L316.215 77.0261M310.807 96.2131L305.502 94.6101M299.417 112.824L305.502 94.6101M299.417 112.824L293.902 112.151M305.502 94.6101L311.727 74.9001M305.502 94.6101L300.829 93.1051M293.902 112.151L300.829 93.1051M300.829 93.1051L307.937 72.4801M300.829 93.1051L297.114 91.8031M335.431 102.12L335.646 101.844M335.431 102.12L339.757 77.8791M335.646 101.844L340.547 75.9571M339.757 77.8791L337.745 79.3141M339.757 77.8791L340.547 75.9571M339.757 77.8791L344.709 58.2401M337.745 79.3141L342.407 60.4991M337.745 79.3141L334.63 80.1511M334.63 80.1511L339.245 61.9981M334.63 80.1511L330.622 80.3311M330.622 80.3311L335.436 62.6311M330.622 80.3311L326 79.8431M326 79.8431L331.245 62.3581M326 79.8431L321.084 78.7151M321.084 78.7151L326.961 61.1911M321.084 78.7151L316.215 77.0261M316.215 77.0261L322.88 59.2101M316.215 77.0261L311.727 74.9001M311.727 74.9001L311.938 74.3901L319.277 56.5621M311.727 74.9001L307.937 72.4801M307.937 72.4801L316.408 53.4231M307.937 72.4801L305.105 69.9341M297.114 91.8031L305.105 69.9341M297.114 91.8031L294.603 90.7921M305.105 69.9341L314.469 50.0091M305.105 69.9341L303.417 67.4381M294.603 90.7921L303.417 67.4381M294.603 90.7921L293.466 90.1421M303.417 67.4381L313.587 46.5561M303.417 67.4381L302.989 65.1651M293.466 90.1421L302.989 65.1651M342.407 60.4991L344.709 58.2401M342.407 60.4991L347.871 47.7191M342.407 60.4991L339.245 61.9981M339.245 61.9981L344.789 49.2691M339.245 61.9981L335.436 62.6311M335.436 62.6311L341.311 49.8751M335.436 62.6311L331.245 62.3581M331.245 62.3581L337.676 49.4981M331.245 62.3581L326.961 61.1911M326.961 61.1911L334.135 48.1591M326.961 61.1911L322.88 59.2101M322.88 59.2101L330.93 45.9501M322.88 59.2101L319.277 56.5621M319.277 56.5621L328.273 43.0301M319.277 56.5621L316.408 53.4231M316.408 53.4231L326.356 39.5921M316.408 53.4231L314.469 50.0091M314.469 50.0091L325.31 35.8721M314.469 50.0091L313.587 46.5561M313.587 46.5561L325.201 32.1261M313.587 46.5561L313.823 43.3031M302.989 65.1651L313.823 43.3031M302.989 65.1651L303.845 63.2691L315.158 40.4711M340.547 75.9571L345.986 55.4671M344.709 58.2401L349.845 46.4781M344.709 58.2401L345.986 55.4671M347.871 47.7191L348.653 47.2261L349.845 46.4781M347.871 47.7191L344.789 49.2691M344.789 49.2691L350.035 45.8501M344.789 49.2691L341.311 49.8751M341.311 49.8751L348.507 45.2711M341.311 49.8751L337.676 49.4981M337.676 49.4981L337.922 49.3511L346.179 44.3881M337.676 49.4981L334.135 48.1591M334.135 48.1591L343.507 43.0451M334.135 48.1591L330.93 45.9501M330.93 45.9501L341.26 40.9561M330.93 45.9501L328.273 43.0301M328.273 43.0301L339.582 38.2741M328.273 43.0301L326.356 39.5921M326.356 39.5921L338.599 35.1721M326.356 39.5921L325.31 35.8721M325.31 35.8721L338.377 31.8621M325.31 35.8721L325.201 32.1261M325.201 32.1261L338.93 28.5731M325.201 32.1261L326.04 28.6131M313.823 43.3031L326.04 28.6131M313.823 43.3031L315.158 40.4711M315.158 40.4711L315.318 40.2821L327.768 25.5711M326.04 28.6131L340.223 25.5301M326.04 28.6131L327.768 25.5711M345.986 55.4671L350.24 46.2301M349.845 46.4781L350.233 46.2331L350.24 46.2301M350.24 46.2301L350.539 46.0411M350.035 45.8501L350.107 45.8781L350.355 45.9721L350.358 45.9731L350.539 46.0411M350.035 45.8501L349.872 45.7891L348.507 45.2711M348.507 45.2711L346.179 44.3881M346.179 44.3881L343.507 43.0451M343.507 43.0451L350.101 45.5681L350.478 45.7121L356.065 47.8491M343.507 43.0451L341.26 40.9561M341.26 40.9561L341.681 41.1261L350.632 44.7101L350.683 44.7311L354.763 46.3651M341.26 40.9561L339.582 38.2741M339.582 38.2741L351.451 43.3631L351.541 43.4021L353.118 44.0781L353.441 44.2181L353.987 44.4511M339.582 38.2741L338.599 35.1721M338.599 35.1721L353.798 42.2311M338.599 35.1721L338.377 31.8621M338.377 31.8621L354.212 39.8591M338.377 31.8621L338.93 28.5731M338.93 28.5731L355.197 37.4951M338.93 28.5731L340.223 25.5301M340.223 25.5301L356.689 35.3031M340.223 25.5301L342.166 22.9431M327.768 25.5711L342.166 22.9431M327.768 25.5711L330.255 23.1991M350.539 46.0411L356.576 48.3301M356.576 48.3301L371.613 62.4691M356.576 48.3301L356.065 47.8491M356.065 47.8491L354.763 46.3651M354.763 46.3651L356.687 48.1871L357.011 48.4951L371.119 61.8581M354.763 46.3651L353.987 44.4511M353.987 44.4511L371.045 60.9531M353.987 44.4511L353.941 43.9041L353.926 43.7311L353.798 42.2311M353.798 42.2311L371.404 59.8101M353.798 42.2311L354.212 39.8591M354.212 39.8591L372.173 58.5101M354.212 39.8591L355.197 37.4951M355.197 37.4951L373.297 57.1391M355.197 37.4951L356.689 35.3031M356.689 35.3031L374.701 55.7951M356.689 35.3031L358.586 33.4351M342.166 22.9431L358.586 33.4351M342.166 22.9431L344.619 20.9811M330.255 23.1991L344.619 20.9811M330.255 23.1991L333.34 21.6641M358.586 33.4351L376.288 54.5681M358.586 33.4351L360.753 32.0131M344.619 20.9811L347.422 19.7851M371.119 61.8581L371.613 62.4681L377.735 69.5601L389.63 83.4061M371.119 61.8581L371.045 60.9531M371.045 60.9531L389.938 83.3091M371.045 60.9531L371.404 59.8101M371.404 59.8101L390.502 83.0061M371.404 59.8101L372.173 58.5091M373.297 57.1391L372.173 58.5091M373.297 57.1391L392.224 81.8751M373.297 57.1391L374.701 55.7951M374.701 55.7951L393.265 81.1261M374.701 55.7951L376.288 54.5681M376.288 54.5681L394.332 80.3201M376.288 54.5681L377.948 53.5381M360.753 32.0131L344.832 21.1271L344.619 20.9821M360.753 32.0131L377.948 53.5381M360.753 32.0131L363.046 31.1401M347.422 19.7851L363.046 31.1401M347.422 19.7851L333.34 21.6641M347.422 19.7851L350.381 19.4371M347.422 19.7851L336.812 21.0751L333.34 21.6641M377.948 53.5381L395.354 79.5121M377.948 53.5381L379.569 52.7831M363.046 31.1401L379.569 52.7831M363.046 31.1401L365.306 30.8761M350.381 19.4371L365.306 30.8761M350.381 19.4371L353.294 19.9571M379.569 52.7831L396.26 78.7571M379.569 52.7831L381.038 52.3521M365.306 30.8761L381.038 52.3521M365.306 30.8761L367.379 31.2361M389.63 83.4061L389.938 83.3091M389.63 83.4061L409.052 102.941L409.366 103.121M389.938 83.3091L409.366 103.121M389.938 83.3091L390.502 83.0061M390.502 83.0061L409.777 103.159M390.502 83.0061L391.281 82.5171M372.173 58.5091L391.281 82.5171M391.281 82.5171L410.257 103.053M391.281 82.5171L392.224 81.8751M392.224 81.8751L410.772 102.812M392.224 81.8751L393.265 81.1261M393.265 81.1261L411.287 102.448M393.265 81.1261L394.332 80.3201M394.332 80.3201L411.768 101.989M394.332 80.3201L395.354 79.5121M395.354 79.5121L412.182 101.466M395.354 79.5121L396.26 78.7571M396.26 78.7571L412.5 100.915M396.26 78.7571L396.987 78.1091M381.038 52.3521L396.987 78.1091M381.038 52.3521L382.256 52.2741M367.379 31.2361L353.294 19.9571M367.379 31.2361L382.256 52.2741M367.379 31.2361L369.121 32.1961M353.294 19.9571L355.96 21.3101L369.121 32.1961M396.987 78.1091L412.699 100.373M396.987 78.1091L397.486 77.6101M382.256 52.2741L397.486 77.6101M382.256 52.2741L383.138 52.5541M369.121 32.1961L383.138 52.5541M369.121 32.1961L370.415 33.6911L383.624 53.1721M397.486 77.6101L412.769 99.8771M397.486 77.6101L397.723 77.2961M383.138 52.5541L397.723 77.2961M383.138 52.5541L383.624 53.1721M383.624 53.1721L397.682 77.1861L397.723 77.2961M397.723 77.2961L412.702 99.4621M409.366 103.121L409.777 103.159M409.777 103.159L428 111.883M409.777 103.159L410.257 103.053M410.257 103.053L410.735 103.293L428 111.883M410.257 103.053L410.772 102.812M410.772 102.812L428 111.883M410.772 102.812L411.287 102.448M411.287 102.448L428 111.883M411.287 102.448L411.768 101.989M411.768 101.989L428 111.883M411.768 101.989L412.182 101.467M412.5 100.915L412.182 101.467M412.5 100.915L428 111.883M412.5 100.915L412.699 100.374M428 111.883L409.366 103.122M428 111.883L412.182 101.467M428 111.883L412.699 100.374M428 111.883L412.769 99.8781M428 111.883L412.702 99.4631M428 111.883L412.503 99.1551M412.699 100.374L412.769 99.8781M412.769 99.8781L412.702 99.4631M412.702 99.4631L412.503 99.1551M412.503 99.1551L397.682 77.1871M33.349 286.922L38.432 261.213M51.426 267.565L38.432 261.213M51.426 267.565L66.014 270.052M51.426 267.565L56.735 235.777M38.432 261.213L50.163 232.61M38.432 261.213L27.818 251.434M27.818 251.434L44.755 227.683M27.818 251.434L20.295 238.942M66.014 270.052L81.119 268.498M66.014 270.052L64.188 237.008M56.735 235.777L50.163 232.61M56.735 235.777L64.188 237.008M56.735 235.777L65.748 206.032M50.163 232.61L65.748 206.032M50.163 232.61L44.755 227.683M81.119 268.498L95.615 262.959M81.119 268.498L71.889 236.182M64.188 237.008L65.973 205.749M64.188 237.008L71.889 236.182M65.748 206.032L65.825 205.885M44.755 227.683L40.906 221.361M44.755 227.683L65.825 205.885M20.295 238.942L40.906 221.361M20.295 238.942L16.369 224.618M65.973 205.749L65.825 205.885M65.973 205.749L38.816 206.268M65.973 205.749L65.855 205.609M65.973 205.749L70.911 177.007M65.973 205.749L66.12 205.615M65.973 205.749L96.552 207.56M65.973 205.749L66.09 205.891M71.889 236.182L79.177 233.373M71.889 236.182L66.132 206.041M65.825 205.885L65.674 205.943M40.906 221.361L65.674 205.943M40.906 221.361L38.89 214.117M65.674 205.943L38.89 214.117M38.89 214.117L16.37 224.618M38.89 214.117L38.816 206.268M16.369 224.618L16.267 209.331M38.816 206.268L16.267 209.331M38.816 206.268L40.69 198.476M65.855 205.609L65.813 205.459M65.855 205.609L65.718 205.544M65.855 205.609L49.593 185.323M70.911 177.007L63.269 177.886M70.911 177.007L79.178 151.942M70.911 177.007L78.342 178.159M66.12 205.615L66.27 205.556M66.12 205.615L66.196 205.467M66.12 205.615L90.4 186.109M96.552 207.56L96.419 199.658M96.552 207.56L129.961 211.936M96.552 207.56L94.7 215.431M66.09 205.891L66.132 206.041M66.09 205.891L66.226 205.955M66.09 205.891L85.72 228.728M16.267 209.331L19.94 194.18M19.94 194.18L40.69 198.476M40.69 198.476L65.718 205.544M40.69 198.476L44.343 191.393M65.718 205.544L44.343 191.393M44.343 191.393L49.593 185.323M65.813 205.459L56.059 180.709M65.813 205.459L63.269 177.886M56.059 180.709L49.594 185.323M56.059 180.709L63.269 177.886M56.059 180.709L50.102 159.29M63.269 177.886L63.379 175.286L63.382 175.237L64.297 153.701M50.102 159.29L64.297 153.701M64.297 153.701L75.197 152.412L75.247 152.406L79.178 151.942M79.178 151.942L93.684 154.128M93.684 154.128L78.342 178.159M78.342 178.159L66.196 205.467M78.342 178.159L84.935 181.245M128.17 146.577L145.76 142.474M128.17 146.577L106.755 160.163M93.682 154.128L106.755 160.163M106.755 160.163L84.935 181.245M106.755 160.163L117.587 169.694M66.196 205.467L84.935 181.245M84.935 181.245L90.4 186.109M117.587 169.694L90.4 186.109M117.587 169.694L125.41 182.07M66.27 205.556L94.327 192.4M66.27 205.556L96.419 199.658M90.4 186.109L94.326 192.4M94.326 192.4L96.419 199.658M94.326 192.4L125.41 182.07M96.419 199.658L129.636 196.446M125.41 182.07L153.874 177.031L154.288 176.958M125.41 182.07L129.636 196.446M154.288 176.958L160.277 196.986M160.277 196.986L129.636 196.446M129.636 196.446L129.961 211.936M129.961 211.936L126.372 227.388M126.372 227.388L94.7 215.431M126.372 227.388L119.09 241.639M94.7 215.431L66.226 205.955M94.7 215.431L91.025 222.595M119.09 241.639L91.025 222.595M119.09 241.639L108.582 253.785M66.226 205.955L91.025 222.595M91.025 222.595L85.72 228.728M108.582 253.785L85.72 228.728M108.582 253.785L95.615 262.959M66.132 206.041L79.177 233.373M85.72 228.728L79.177 233.373M79.177 233.373L95.615 262.959" stroke="url(#paint0_linear_219_7407)" stroke-linecap="round" stroke-linejoin="round"/>
<defs>
<linearGradient id="paint0_linear_219_7407" x1="40.5" y1="230.1" x2="418.205" y2="-252.74" gradientUnits="userSpaceOnUse">
<stop stop-color="#E9EBF1" stop-opacity="0"/>
<stop offset="1" stop-color="#CED2DF"/>
</linearGradient>
</defs>
</svg>
