<svg width="18" height="28" viewBox="0 0 18 28" fill="none" xmlns="http://www.w3.org/2000/svg">
<path d="M9.00156 16.8C6.77374 16.8 4.63717 15.915 3.06187 14.3397C1.48656 12.7644 0.601563 10.6278 0.601562 8.4C0.601563 6.17218 1.48656 4.03561 3.06187 2.4603C4.63717 0.884997 6.77374 0 9.00156 0C11.2294 0 13.366 0.884997 14.9413 2.4603C16.5166 4.03561 17.4016 6.17218 17.4016 8.4C17.4016 10.6278 16.5166 12.7644 14.9413 14.3397C13.366 15.915 11.2294 16.8 9.00156 16.8ZM9.00156 12.6C10.1155 12.6 11.1838 12.1575 11.9714 11.3698C12.7591 10.5822 13.2016 9.51391 13.2016 8.4C13.2016 7.28609 12.7591 6.2178 11.9714 5.43015C11.1838 4.6425 10.1155 4.2 9.00156 4.2C7.88765 4.2 6.81937 4.6425 6.03171 5.43015C5.24406 6.2178 4.80156 7.28609 4.80156 8.4C4.80156 9.51391 5.24406 10.5822 6.03171 11.3698C6.81937 12.1575 7.88765 12.6 9.00156 12.6ZM14.6016 16.45V28L9.00156 22.4L3.40156 28V16.45C5.04254 17.6 6.99776 18.2168 9.00156 18.2168C11.0054 18.2168 12.9606 17.6 14.6016 16.45Z" fill="white"/>
</svg>
