<svg width="390" height="156" viewBox="0 0 390 156" fill="none" xmlns="http://www.w3.org/2000/svg">
<path d="M135.424 124.64C129.024 124.64 123.264 123.189 118.144 120.288C113.109 117.387 109.141 113.376 106.24 108.256C103.339 103.051 101.888 97.0773 101.888 90.336C101.888 83.5093 103.339 77.536 106.24 72.416C109.141 67.296 113.109 63.328 118.144 60.512C123.264 57.6107 129.024 56.16 135.424 56.16C141.312 56.16 146.56 57.4827 151.168 60.128C155.861 62.7733 159.573 66.656 162.304 71.776C165.12 76.8107 166.528 82.9973 166.528 90.336C166.528 97.5893 165.163 103.776 162.432 108.896C159.701 114.016 155.989 117.941 151.296 120.672C146.688 123.317 141.397 124.64 135.424 124.64ZM136.064 116.576C140.843 116.576 145.109 115.509 148.864 113.376C152.704 111.157 155.691 108.085 157.824 104.16C160.043 100.149 161.152 95.5413 161.152 90.336C161.152 85.0453 160.043 80.4373 157.824 76.512C155.691 72.5867 152.704 69.5573 148.864 67.424C145.109 65.2053 140.843 64.096 136.064 64.096C131.371 64.096 127.147 65.2053 123.392 67.424C119.637 69.5573 116.651 72.5867 114.432 76.512C112.213 80.4373 111.104 85.0453 111.104 90.336C111.104 95.5413 112.213 100.149 114.432 104.16C116.651 108.085 119.637 111.157 123.392 113.376C127.147 115.509 131.371 116.576 136.064 116.576ZM161.408 124V103.776L162.304 90.208L161.024 76.64V29.024H170.112V124H161.408ZM195.422 124V56.8H204.51V124H195.422ZM200.03 41.952C198.153 41.952 196.574 41.312 195.294 40.032C194.014 38.752 193.374 37.216 193.374 35.424C193.374 33.632 194.014 32.1387 195.294 30.944C196.574 29.664 198.153 29.024 200.03 29.024C201.907 29.024 203.486 29.6213 204.766 30.816C206.046 32.0107 206.686 33.504 206.686 35.296C206.686 37.1733 206.046 38.752 204.766 40.032C203.571 41.312 201.993 41.952 200.03 41.952ZM231.333 124V48.352C231.333 42.3787 233.082 37.5573 236.581 33.888C240.08 30.2187 245.114 28.384 251.685 28.384C254.245 28.384 256.72 28.7253 259.109 29.408C261.498 30.0907 263.504 31.1573 265.125 32.608L262.053 39.392C260.773 38.2827 259.28 37.472 257.573 36.96C255.866 36.3627 254.032 36.064 252.069 36.064C248.229 36.064 245.285 37.1307 243.237 39.264C241.189 41.3973 240.165 44.5547 240.165 48.736V58.976L240.421 63.2V124H231.333ZM219.301 64.352V56.8H260.901V64.352H219.301ZM260.756 124L301.716 34.4H311.06L352.02 124H342.036L304.404 39.904H308.244L270.612 124H260.756ZM276.884 100.064L279.7 92.384H331.796L334.612 100.064H276.884ZM364.922 124V56.8H374.01V124H364.922ZM369.53 41.952C367.653 41.952 366.074 41.312 364.794 40.032C363.514 38.752 362.874 37.216 362.874 35.424C362.874 33.632 363.514 32.1387 364.794 30.944C366.074 29.664 367.653 29.024 369.53 29.024C371.407 29.024 372.986 29.6213 374.266 30.816C375.546 32.0107 376.186 33.504 376.186 35.296C376.186 37.1733 375.546 38.752 374.266 40.032C373.071 41.312 371.493 41.952 369.53 41.952Z" fill="#010233"/>
<path fill-rule="evenodd" clip-rule="evenodd" d="M375.749 36.3378L375.863 43.7876C375.865 43.9244 375.728 44.0185 375.6 43.9674C374.665 43.596 373.657 43.3919 372.412 43.4109C371.085 43.4312 369.677 43.7889 368.6 44.3786C368.544 44.409 368.481 44.4099 368.422 44.3813C367.328 43.8259 365.909 43.5102 364.583 43.5305C363.338 43.5495 362.335 43.783 361.413 44.184C361.288 44.2378 361.147 44.1491 361.145 44.0123L361.031 36.5625L367.095 38.3537C367.727 38.5411 368.686 38.6621 369.31 38.4556L375.749 36.3378Z" fill="#010233"/>
<path d="M352.194 34.0609C352.416 34.2994 352.669 34.4421 352.828 34.5207C353.016 34.6128 353.216 34.6864 353.413 34.7447L366.979 38.7514L366.979 38.7505C367.372 38.8669 367.798 38.9389 368.182 38.9659C368.513 38.9892 369.01 38.9948 369.455 38.8485L369.455 38.8494L379.257 35.6261L379.287 37.5448C378.874 37.9911 378.618 38.5719 378.579 39.1622L378.575 39.3539L378.583 39.5279C378.62 40.0142 378.777 40.4264 379.011 40.7669L378.68 46.2425L378.583 47.8572L384.007 47.7747L383.86 46.1639L383.361 40.7002C383.61 40.3124 383.762 39.8381 383.754 39.2749C383.744 38.6204 383.46 37.9687 382.988 37.4886L382.941 34.4134L383.759 34.145L383.761 34.1451C383.929 34.0896 384.511 33.8801 384.8 33.2382C385.173 32.4085 384.725 31.7329 384.508 31.4926C384.283 31.2449 384.022 31.0985 383.859 31.0183C383.766 30.9723 383.669 30.9311 383.571 30.8941L383.273 30.7946L369.706 26.7866L369.705 26.787C369.312 26.6714 368.887 26.6005 368.505 26.5735C368.174 26.5501 367.676 26.5433 367.232 26.6886L367.229 26.6899L352.927 31.3939L348.026 33.0055L352.194 34.0609ZM381.925 40.0994C381.896 40.1267 381.865 40.1529 381.832 40.178C381.825 40.1822 381.82 40.1889 381.817 40.1961C381.82 40.1889 381.824 40.1827 381.831 40.1784C381.896 40.1281 381.956 40.0734 382.009 40.0136L381.925 40.0994Z" fill="#010233"/>
<path d="M17.2461 30.5H75.8887C76.1098 30.5 76.3468 30.5357 76.5127 30.5938C77.1787 30.8652 77.748 31.4836 78.042 32.4043L88.3252 65.3105V65.3115C88.6494 66.3458 88.5 67.4145 88.0605 68.2158C87.6189 69.0208 86.9237 69.5 86.1729 69.5H12.2637L4.62109 67.125L15.0938 32.4443C15.4838 31.2036 16.3673 30.5 17.2461 30.5Z" fill="#010233" stroke="white"/>
<path d="M12.1243 93.5C1.79954 93.5 0.803567 67 12.1207 67C23.4378 67 85.1197 67 85.1197 67M12.1243 93.5C42.1756 93.5 84.5834 93.5 84.5834 93.5C84.5834 93.5 22.1828 93.5 12.1243 93.5ZM12.1218 120C1.79708 120 0.801108 93.5 12.1182 93.5C23.4353 93.5 85 93.5 85 93.5M12.1218 120C42.1732 120 85.1197 120 85.1197 120C85.1197 120 22.1803 120 12.1218 120Z" stroke="url(#paint0_linear_1461_10891)" stroke-width="8" stroke-linecap="round"/>
<path d="M84 116H85C87.2091 116 89 117.791 89 120V120C89 122.209 87.2091 124 85 124H84V116Z" fill="#F63D46"/>
<defs>
<linearGradient id="paint0_linear_1461_10891" x1="7.45321" y1="66.5" x2="6.5" y2="123.5" gradientUnits="userSpaceOnUse">
<stop stop-color="#40DAB8"/>
<stop offset="0.394231" stop-color="#F1B22C"/>
<stop offset="0.605769" stop-color="#F1B22C"/>
<stop offset="0.850962" stop-color="#F63D46"/>
<stop offset="1" stop-color="#F63D46"/>
</linearGradient>
</defs>
</svg>
