<svg width="67" height="66" viewBox="0 0 67 66" fill="none" xmlns="http://www.w3.org/2000/svg">
<rect x="0.5" width="66" height="66" rx="8" fill="#8A63FF" fill-opacity="0.2"/>
<rect x="1" y="0.5" width="65" height="65" rx="7.5" stroke="#8A63FF" stroke-opacity="0.2"/>
<path d="M25.726 47.7086H44.1537C44.7799 47.7086 45.2921 47.2105 45.2921 46.5702C45.2921 46.0721 44.9506 45.6309 44.4953 45.4744C42.7023 44.763 42.3323 42.4434 44.0969 40.6648C44.6376 40.124 45.2921 39.4268 45.2921 38.0038V21.6821C45.2921 18.7222 43.8264 17.2139 40.8808 17.2139H25.7687C22.8231 17.2139 21.3574 18.708 21.3574 21.6821V43.3115C21.3574 46.2428 22.8373 47.7086 25.726 47.7086ZM25.8541 45.4176C24.4169 45.4176 23.6484 44.6492 23.6484 43.2973C23.6484 42.0166 24.5592 41.1913 25.9821 41.1913H40.582C40.767 41.1913 40.9378 41.1771 41.0801 41.1485C40.4113 42.6285 40.5252 44.1938 41.2792 45.4176H25.8541ZM25.4272 39.0283C24.986 39.0283 24.6161 38.6584 24.6161 38.203V20.2306C24.6161 19.7753 24.986 19.4195 25.4272 19.4195C25.8683 19.4195 26.2525 19.7753 26.2525 20.2306V38.203C26.2525 38.6584 25.8683 39.0283 25.4272 39.0283Z" fill="#8A63FF"/>
</svg>
