<svg width="9" height="9" viewBox="0 0 9 9" fill="none" xmlns="http://www.w3.org/2000/svg">
<path d="M4.53306 1C2.63032 1 1.08194 2.54843 1.06653 4.44353C1.05883 5.36797 1.41318 6.24619 2.06797 6.901C2.71506 7.56351 3.58554 7.92559 4.50995 7.93329H4.53306C6.43579 7.93329 7.98418 6.38485 7.99958 4.48976C8.01499 2.57925 6.46661 1.01541 4.53306 1ZM4.53306 7.46337H4.50995C3.70879 7.45566 2.96156 7.13981 2.39151 6.56974C1.83687 6.00738 1.52873 5.25242 1.53644 4.45124C1.54414 2.81036 2.89223 1.46992 4.55617 1.46992C6.2124 1.47763 7.54508 2.83347 7.53738 4.48976C7.52197 6.13063 6.17388 7.46337 4.53306 7.46337Z" fill="#151F43" stroke="#151F43" stroke-width="0.5"/>
<path d="M5.91916 3.88232C5.91916 3.24972 5.40467 2.73145 4.77668 2.73145H3.59637C3.47531 2.73145 3.37695 2.83053 3.37695 2.95247V6.09262C3.37695 6.21456 3.47531 6.31364 3.59637 6.31364C3.71743 6.31364 3.81579 6.21456 3.81579 6.09262V3.1735H4.77668C5.16255 3.1735 5.48033 3.49362 5.48033 3.88232C5.48033 4.27103 5.16255 4.59114 4.77668 4.59114H4.5043C4.41351 4.59114 4.33785 4.64449 4.30002 4.72071C4.26219 4.80455 4.27732 4.89601 4.33785 4.95698L5.48789 6.20694C5.57112 6.2984 5.70731 6.2984 5.7981 6.22218C5.88889 6.13835 5.8889 6.00116 5.81323 5.9097L4.98853 5.01033C5.51816 4.91125 5.91916 4.44633 5.91916 3.88232Z" fill="#151F43" stroke="#151F43" stroke-width="0.5"/>
</svg>
