<svg width="20" height="28" viewBox="0 0 20 28" fill="none" xmlns="http://www.w3.org/2000/svg">
<path d="M18.8826 3.74631C19.2925 3.74631 19.625 3.38625 19.625 2.94394V1.67694C19.625 1.23375 19.2925 0.875 18.8826 0.875H1.11744C0.707062 0.875 0.375 1.23375 0.375 1.67694V2.94394C0.375 3.38625 0.707062 3.74588 1.11744 3.74588H1.57812V24.2537H1.11744C0.707062 24.2537 0.375 24.6124 0.375 25.0556V26.3222C0.375 26.7654 0.707062 27.125 1.11744 27.125H18.8821C19.2925 27.125 19.625 26.7654 19.625 26.3222V25.0556C19.625 24.6124 19.2925 24.2537 18.8826 24.2537H18.4219V3.74631H18.8826ZM2.38006 24.2541V3.74631H3.13431C2.93962 3.74631 2.78125 3.89288 2.78125 4.074V5.05838C2.78125 5.2395 2.93788 5.38519 3.13212 5.3865C3.13212 9.01294 3.71312 12.5374 7.91487 13.7519L8.12225 13.8176C8.30381 13.8753 8.52125 13.9436 8.63238 14C8.52125 14.0556 8.30644 14.1238 8.12575 14.1807L7.92756 14.2441C3.71356 15.463 3.13256 18.9871 3.13256 22.6135C2.93875 22.6148 2.78169 22.7609 2.78169 22.9412V23.9256C2.78169 24.1067 2.93963 24.2541 3.13475 24.2541H2.38006ZM11.6389 14.9647L11.855 15.0329C14.8326 15.8939 15.9951 17.8526 16.0624 22.2031H10.357C10.2997 20.1801 10.1562 15.0137 10.1562 14C10.1562 13.6566 10.7914 13.1749 11.0837 13.0029C12.317 12.2745 13.9034 10.8334 13.9034 9.33362H6.09575C6.09575 10.8334 7.68213 12.2745 8.91544 13.0029C9.20681 13.1753 9.84294 13.6566 9.84294 14C9.84294 15.0404 9.69987 20.1854 9.64256 22.2031H3.93756C4.0045 17.8539 5.16825 15.8944 8.15725 15.0294L8.36244 14.9651C8.93688 14.784 9.47937 14.6125 9.47937 14.0004C9.47937 13.3875 8.93513 13.2156 8.35806 13.0344L8.14456 12.9666C5.16738 12.1056 4.00494 10.1474 3.938 5.79731H16.0633C15.9959 10.1474 14.8326 12.1069 11.8445 12.9706L11.6446 13.034C11.0671 13.2151 10.5215 13.3871 10.5215 14.0004C10.5206 14.6121 11.064 14.7836 11.6389 14.9647ZM17.6195 24.2541H16.8661C17.0604 24.2541 17.2188 24.1067 17.2188 23.9256V22.9412C17.2188 22.7605 17.0612 22.6148 16.8674 22.6139C16.8674 18.9871 16.2864 15.4621 12.0847 14.2476L11.8747 14.1811C11.6944 14.1243 11.4788 14.056 11.3676 14.0004C11.4792 13.944 11.6971 13.8757 11.8791 13.818L12.0729 13.7563C16.2864 12.5383 16.8674 9.01381 16.8674 5.38694C17.0608 5.38606 17.2188 5.23994 17.2188 5.05838V4.074C17.2188 3.89288 17.0608 3.74631 16.8661 3.74631H17.6195V24.2541Z" fill="white"/>
</svg>
