<svg width="90" height="94" viewBox="0 0 90 94" fill="none" xmlns="http://www.w3.org/2000/svg">
<path d="M17.2461 0.5H75.8887C76.1098 0.5 76.3468 0.535698 76.5127 0.59375C77.1787 0.865209 77.748 1.48355 78.042 2.4043L88.3252 35.3105V35.3115C88.6494 36.3458 88.5 37.4145 88.0605 38.2158C87.6189 39.0208 86.9237 39.5 86.1729 39.5H12.2637L4.62109 37.125L15.0938 2.44434C15.4838 1.2036 16.3673 0.500035 17.2461 0.5Z" fill="#010233" stroke="white"/>
<path d="M12.1243 63.5C1.79954 63.5 0.803567 37 12.1207 37C23.4378 37 85.1197 37 85.1197 37M12.1243 63.5C42.1756 63.5 84.5834 63.5 84.5834 63.5C84.5834 63.5 22.1828 63.5 12.1243 63.5ZM12.1218 90C1.79708 90 0.801108 63.5 12.1182 63.5C23.4353 63.5 85 63.5 85 63.5M12.1218 90C42.1732 90 85.1197 90 85.1197 90C85.1197 90 22.1803 90 12.1218 90Z" stroke="url(#paint0_linear_1461_10885)" stroke-width="8" stroke-linecap="round"/>
<path d="M84 86H85C87.2091 86 89 87.7909 89 90V90C89 92.2091 87.2091 94 85 94H84V86Z" fill="#F63D46"/>
<defs>
<linearGradient id="paint0_linear_1461_10885" x1="7.45321" y1="36.5" x2="6.5" y2="93.5" gradientUnits="userSpaceOnUse">
<stop stop-color="#40DAB8"/>
<stop offset="0.394231" stop-color="#F1B22C"/>
<stop offset="0.605769" stop-color="#F1B22C"/>
<stop offset="0.850962" stop-color="#F63D46"/>
<stop offset="1" stop-color="#F63D46"/>
</linearGradient>
</defs>
</svg>
