<svg width="107" height="92" viewBox="0 0 107 92" fill="none" xmlns="http://www.w3.org/2000/svg">
<path d="M102.124 92H12.5752C2.58591 92 -0.878347 76.1707 0.934427 70.6572L2.58591 65.6068L2.66656 65.3752L3.06929 64.078L3.35154 63.2429C3.27139 63.1044 3.15067 62.9655 3.07027 62.8269C-0.0716593 58.3789 -0.837041 52.263 0.93541 46.8885L2.5869 41.8382L2.66754 41.6065L15.5178 2.54823C16.0414 1.01918 17.2902 0 18.7 0H89.6782C90.0005 0 90.3632 0.0463778 90.645 0.138851C91.652 0.50959 92.4577 1.34354 92.8607 2.50186L105.308 39.0583C106.194 41.6529 104.502 44.4328 102.126 44.4328H99.0229H12.5772C11.3685 44.4328 10.2004 44.8499 9.19333 45.545C9.03228 45.6375 8.83067 45.7766 8.66963 45.9154C7.01815 47.2593 5.93043 49.4831 5.93043 51.985V52.4949C5.93043 52.9581 5.97076 53.3749 6.05115 53.8384C6.57485 57.0818 8.7906 59.6764 11.6505 60.2323C12.0132 60.3248 12.4159 60.3712 12.8189 60.3712H103.616C104.14 60.3712 104.623 60.5103 105.026 60.6955C105.389 60.9272 105.711 61.2051 105.993 61.5295C106.637 62.2246 107 63.1977 107 64.2632C107 66.4407 105.469 68.2014 103.616 68.2014H102.125H12.5762C11.5288 68.2014 10.5217 68.4794 9.6354 69.0353C9.43403 69.0817 9.23267 69.2209 9.07138 69.3597C7.17821 70.7035 5.92945 73.0663 5.92945 75.7536V76.2632C5.92945 76.9119 6.01009 77.5607 6.17114 78.163C6.81555 81.1745 8.95066 83.445 11.6495 84.001C12.0122 84.0934 12.4149 84.1398 12.8179 84.1398H103.615C103.978 84.1398 104.34 84.1862 104.663 84.3253C105.186 84.5106 105.629 84.8349 105.992 85.2981C106.636 85.9932 106.999 86.966 106.999 88.0319C106.999 90.2094 105.468 91.97 103.615 91.97H102.33C102.259 91.9751 102.195 92 102.124 92Z" fill="#4E339C"/>
</svg>
