<svg width="66" height="66" viewBox="0 0 66 66" fill="none" xmlns="http://www.w3.org/2000/svg">
<rect width="66" height="66" rx="8" fill="#8A63FF" fill-opacity="0.2"/>
<rect x="0.5" y="0.5" width="65" height="65" rx="7.5" stroke="#8A63FF" stroke-opacity="0.2"/>
<path d="M16 33.5891C16 36.029 17.6906 37.3685 19.5925 37.3685C20.3909 37.3685 20.9896 37.1412 21.7058 36.6867C22.375 36.2682 22.8564 36.5193 22.8564 37.1054V41.5307C22.8564 43.8869 24.0773 45.0949 26.4136 45.0949H29.5483C30.1118 45.0949 30.3584 44.6164 29.9593 43.9347C29.5014 43.2051 29.2783 42.5952 29.2783 41.7818C29.2783 39.8443 30.6049 38.122 33 38.122C35.3951 38.122 36.71 39.8443 36.71 41.7818C36.71 42.5952 36.4869 43.2051 36.0407 43.9347C35.6416 44.6164 35.8763 45.0949 36.4517 45.0949H39.5864C41.9227 45.0949 43.1437 43.8869 43.1437 41.5307V37.1054C43.1437 36.5193 43.625 36.2682 44.2825 36.6867C45.0103 37.1412 45.6091 37.3685 46.3957 37.3685C48.3094 37.3685 50 36.029 50 33.5891C50 31.1372 48.3094 29.7976 46.3957 29.7976C45.6091 29.7976 45.0103 30.0249 44.2825 30.4794C43.625 30.898 43.1437 30.6468 43.1437 30.0608V25.6355C43.1437 23.2912 41.9227 22.0713 39.5864 22.0713H36.4517C35.8763 22.0713 35.6416 22.5617 36.0407 23.2434C36.4869 23.973 36.71 24.583 36.71 25.3962C36.71 27.3338 35.3951 29.0561 33 29.0561C30.6049 29.0561 29.2783 27.3338 29.2783 25.3962C29.2783 24.583 29.5014 23.973 29.9593 23.2434C30.3584 22.5617 30.1118 22.0713 29.5483 22.0713H26.4136C24.0773 22.0713 22.8564 23.2912 22.8564 25.6355V30.0608C22.8564 30.6468 22.375 30.898 21.7058 30.4794C20.9896 30.0249 20.3909 29.7976 19.5925 29.7976C17.6906 29.7976 16 31.1372 16 33.5891Z" fill="#8A63FF"/>
</svg>
