<svg width="66" height="66" viewBox="0 0 66 66" fill="none" xmlns="http://www.w3.org/2000/svg">
<rect width="66" height="66" rx="8" fill="#8A63FF" fill-opacity="0.2"/>
<rect x="0.5" y="0.5" width="65" height="65" rx="7.5" stroke="#8A63FF" stroke-opacity="0.2"/>
<path d="M28.9409 49.8251H37.0589C41.6825 49.8251 43.9679 47.4514 43.928 42.704C43.8748 37.2823 43.8483 33.3441 43.7154 30.3905C43.3301 21.7049 40.9253 19.1559 33.0065 19.1559C25.0878 19.1559 22.6697 21.7049 22.2844 30.3905C22.1515 33.3441 22.1249 37.2823 22.0718 42.704C22.0319 47.4514 24.3172 49.8251 28.9409 49.8251ZM28.5556 44.4708C27.4129 44.4708 26.6822 43.7155 26.6822 42.5827V35.6234C26.6822 34.477 27.4129 33.7217 28.5556 33.7217H37.4575C38.5869 33.7217 39.3176 34.477 39.3176 35.6234V42.5827C39.3176 43.7155 38.5869 44.4708 37.4575 44.4708H28.5556ZM26.6822 38.9143H39.3176V37.3092H26.6822V38.9143ZM33.0065 16C30.4555 16 28.6619 17.7533 28.6619 20.1405H30.5353C30.5353 18.8322 31.545 17.9016 33.0065 17.9016C34.4547 17.9016 35.4778 18.8322 35.4778 20.1405H37.3512C37.3512 17.7533 35.5443 16 33.0065 16Z" fill="#8A63FF"/>
</svg>
