<svg width="67" height="66" viewBox="0 0 67 66" fill="none" xmlns="http://www.w3.org/2000/svg">
<rect x="0.5" width="66" height="66" rx="8" fill="#8A63FF" fill-opacity="0.2"/>
<rect x="1" y="0.5" width="65" height="65" rx="7.5" stroke="#8A63FF" stroke-opacity="0.2"/>
<path d="M44.2626 46.0009C44.9029 46.0009 45.4294 45.4888 45.4294 44.8625C45.4294 44.2223 44.9029 43.6957 44.2626 43.6957H42.5265V34.2613C42.5265 29.0674 38.5279 25.0545 33.334 25.0545C28.1543 25.0545 24.1557 29.0674 24.1557 34.2613V43.6957H22.3912C21.7651 43.6957 21.267 44.2223 21.267 44.8625C21.267 45.4888 21.7651 46.0009 22.3912 46.0009H44.2626ZM34.5293 34.304V43.6957H32.1671V34.304C32.1671 33.6495 32.6794 33.1086 33.334 33.1086C33.9885 33.1086 34.5293 33.6495 34.5293 34.304ZM20.4417 35.2858C21.1105 35.2858 21.6939 34.7309 21.6939 34.0763C21.6939 33.3933 21.1105 32.8383 20.4417 32.8383H17.7095C17.055 32.8383 16.5 33.4075 16.5 34.0763C16.5 34.7167 17.055 35.2858 17.7095 35.2858H20.4417ZM23.3588 25.823C23.8284 26.2925 24.6111 26.3068 25.0806 25.823C25.5644 25.3392 25.5502 24.5707 25.0806 24.1011L23.1596 22.1659C22.7042 21.6821 21.9074 21.6821 21.4236 22.1659C20.954 22.6497 20.954 23.4039 21.4236 23.8877L23.3588 25.823ZM32.1102 21.184C32.1102 21.8528 32.6652 22.422 33.334 22.422C34.017 22.422 34.572 21.8528 34.572 21.184V18.4519C34.572 17.7831 34.0028 17.2139 33.334 17.2139C32.6652 17.2139 32.1102 17.7831 32.1102 18.4519V21.184ZM41.5731 24.1011C41.1035 24.5707 41.0893 25.3392 41.5731 25.823C42.0712 26.3068 42.8253 26.2925 43.2949 25.823L45.2444 23.8877C45.714 23.4039 45.714 22.6497 45.2444 22.1659C44.7463 21.6821 43.9922 21.6821 43.5226 22.1659L41.5731 24.1011ZM48.9443 35.2858C49.613 35.2858 50.1822 34.7167 50.1822 34.0763C50.1822 33.4075 49.613 32.8383 48.9443 32.8383H46.2121C45.5575 32.8383 44.9882 33.3933 44.9882 34.0763C44.9882 34.7309 45.5575 35.2858 46.2121 35.2858H48.9443Z" fill="#8A63FF"/>
</svg>
