<svg width="8" height="9" viewBox="0 0 8 9" fill="none" xmlns="http://www.w3.org/2000/svg">
<path d="M3.49919 2.13583V8C3.49919 8.14189 3.54708 8.26067 3.64285 8.35633C3.73852 8.45211 3.8573 8.5 3.99919 8.5C4.14108 8.5 4.25985 8.45211 4.35552 8.35633C4.4513 8.26067 4.49919 8.14189 4.49919 8V2.13583L6.71452 4.35133C6.80685 4.44356 6.92291 4.49078 7.06269 4.493C7.20235 4.49511 7.32052 4.44789 7.41719 4.35133C7.51374 4.25467 7.56202 4.13756 7.56202 4C7.56202 3.86244 7.51374 3.74533 7.41719 3.64867L4.42102 0.6525C4.30047 0.532055 4.15985 0.471833 3.99919 0.471833C3.83852 0.471833 3.69791 0.532055 3.57735 0.6525L0.581188 3.64867C0.488965 3.741 0.441743 3.85706 0.439521 3.99683C0.43741 4.1365 0.484632 4.25467 0.581188 4.35133C0.677854 4.44789 0.794965 4.49617 0.932521 4.49617C1.07008 4.49617 1.18719 4.44789 1.28385 4.35133L3.49919 2.13583Z" fill="white"/>
</svg>
