<svg width="23" height="19" viewBox="0 0 23 19" fill="none" xmlns="http://www.w3.org/2000/svg">
<path fill-rule="evenodd" clip-rule="evenodd" d="M20.726 4.63698C20.7343 4.84182 20.7371 5.04659 20.7371 5.25144C20.7371 11.462 16.1525 18.6318 7.76885 18.6318C5.19354 18.6318 2.79888 17.8496 0.78125 16.5181C1.1379 16.5554 1.50012 16.5834 1.86788 16.5834C4.00316 16.5834 5.96985 15.829 7.52985 14.5627C5.53538 14.5347 3.85125 13.166 3.27041 11.3037C3.54925 11.3596 3.83641 11.3876 4.13006 11.3876C4.54415 11.3876 4.94619 11.3318 5.33156 11.2201C3.24445 10.7918 1.67242 8.89232 1.67242 6.61107C1.67242 6.58313 1.67242 6.57377 1.67242 6.55514C2.28753 6.89966 2.99156 7.11371 3.73914 7.14164C2.51448 6.29432 1.70946 4.85112 1.70946 3.22165C1.70946 2.36502 1.93364 1.5549 2.32827 0.856561C4.57564 3.7058 7.93561 5.57738 11.7235 5.77292C11.6457 5.4284 11.6059 5.06536 11.6059 4.70222C11.6059 2.10438 13.6466 0 16.1645 0C17.4753 0 18.6592 0.568067 19.4902 1.48057C20.5305 1.27572 21.505 0.884676 22.3869 0.344625C22.0451 1.44335 21.3235 2.36497 20.3804 2.94227C21.3031 2.83053 22.1832 2.57932 22.9993 2.20687C22.387 3.14731 21.6162 3.97588 20.726 4.63698Z" fill="#8A63FF"/>
</svg>
